<?xml version="1.0" encoding="UTF-8"?>
<svg version="1.1" xmlns="http://www.w3.org/2000/svg" width="192" height="192">
<path d="M0 0 C63.36 0 126.72 0 192 0 C192 63.36 192 126.72 192 192 C128.64 192 65.28 192 0 192 C0 128.64 0 65.28 0 0 Z " fill="#F7F6F5" transform="translate(0,0)"/>
<path d="M0 0 C63.36 0 126.72 0 192 0 C192 63.36 192 126.72 192 192 C128.64 192 65.28 192 0 192 C0 128.64 0 65.28 0 0 Z M32 46 C18.27021478 63.89066514 12.54262478 84.87715287 15.4296875 107.34375 C17.94427082 119.88562236 23.30321455 131.63508248 31.203125 141.66796875 C33 144 33 144 34.421875 146.61328125 C36.28928434 149.43750676 38.05703839 150.38381987 41 152 C42.45276577 153.2110857 43.88957349 154.44149153 45.3125 155.6875 C54.03069786 162.76124736 65.10961256 168.20920707 76 171 C76.67933594 171.20238281 77.35867187 171.40476563 78.05859375 171.61328125 C98.94769779 176.93511538 121.82653471 171.99744173 140.3125 161.6875 C158.64135125 150.29388976 171.46424448 134.39965001 176.875 113.375 C177.27049868 111.58774645 177.64727491 109.79618469 178 108 C178.27263672 106.85337891 178.27263672 106.85337891 178.55078125 105.68359375 C181.88247324 85.78035553 176.07478929 66.97229463 165.27734375 50.34765625 C163.6172525 48.11457843 161.87399289 46.0563483 160 44 C159.28457031 43.19304688 158.56914062 42.38609375 157.83203125 41.5546875 C142.27313559 24.95514792 120.59011661 16.40589772 97.99609375 15.59765625 C72.61036856 15.23092828 48.35375661 26.54705432 32 46 Z " fill="#FDFDFC" transform="translate(0,0)"/>
<path d="M0 0 C2.5578025 2.22826966 5.00182781 4.52941794 7.421875 6.90625 C8.1953125 7.65519531 8.96875 8.40414062 9.765625 9.17578125 C18.18396961 17.86801036 24.46876152 29.13820379 27.421875 40.90625 C27.62425781 41.61007813 27.82664063 42.31390625 28.03515625 43.0390625 C32.85628166 62.38915769 28.35619409 82.73615014 18.796875 99.84375 C6.03279017 120.02655419 -12.30622541 132.31066379 -35.578125 137.90625 C-60.34489736 141.72828277 -82.45277705 137.17686621 -102.890625 122.59375 C-105.1375606 120.89736523 -107.23190127 119.26595203 -109.18359375 117.23828125 C-110.65432661 115.64385007 -110.65432661 115.64385007 -113.578125 114.90625 C-114.63118188 113.27258878 -115.62363479 111.59939093 -116.578125 109.90625 C-117.85713319 108.18841892 -119.1495252 106.48049487 -120.453125 104.78125 C-132.84037385 87.83386009 -136.47045191 67.88920596 -133.953125 47.34375 C-130.22437168 26.30106521 -117.02396411 8.1021392 -99.75 -4.08984375 C-69.25123224 -23.95911486 -28.69215708 -23.30150939 0 0 Z M-105.203125 5.15625 C-105.73663574 5.59275879 -106.27014648 6.02926758 -106.81982422 6.47900391 C-108.11455668 7.57362974 -109.3521929 8.73508463 -110.578125 9.90625 C-110.578125 10.56625 -110.578125 11.22625 -110.578125 11.90625 C-111.238125 11.90625 -111.898125 11.90625 -112.578125 11.90625 C-114.12015569 13.81182427 -115.51520021 15.69709568 -116.890625 17.71875 C-117.29361816 18.3075293 -117.69661133 18.89630859 -118.11181641 19.50292969 C-123.40309573 27.41747315 -126.75661253 35.84770995 -129.578125 44.90625 C-129.908125 43.58625 -130.238125 42.26625 -130.578125 40.90625 C-133.22154485 50.81907443 -132.77068251 60.73032634 -132.578125 70.90625 C-131.918125 69.91625 -131.258125 68.92625 -130.578125 67.90625 C-130.72121094 68.88464844 -130.72121094 68.88464844 -130.8671875 69.8828125 C-131.53166681 75.12138193 -131.79605767 78.94851816 -129.578125 83.90625 C-129.248125 82.58625 -128.918125 81.26625 -128.578125 79.90625 C-127.258125 82.87625 -125.938125 85.84625 -124.578125 88.90625 C-122.77402918 86.6921324 -121.58851734 84.93604136 -120.640625 82.21875 C-120.1146875 81.0740625 -120.1146875 81.0740625 -119.578125 79.90625 C-118.25016209 79.55212656 -116.91595893 79.22103446 -115.578125 78.90625 C-113.32962017 76.42963502 -113.32962017 76.42963502 -111.578125 73.90625 C-111.908125 74.56625 -112.238125 75.22625 -112.578125 75.90625 C-112.828125 79.40625 -112.828125 79.40625 -112.578125 82.90625 C-110.67586191 85.23793692 -110.67586191 85.23793692 -107.43359375 85.17578125 C-103.31475869 84.88783837 -99.75327042 83.95405601 -95.890625 82.59375 C-95.24029297 82.38041016 -94.58996094 82.16707031 -93.91992188 81.94726562 C-90.28016211 80.70433033 -87.60134177 79.22583841 -84.578125 76.90625 C-83.46695313 76.60460937 -82.35578125 76.30296875 -81.2109375 75.9921875 C-75.40791542 73.59979493 -73.73962946 66.91443766 -71.453125 61.53125 C-70.95425781 60.41363281 -70.45539063 59.29601562 -69.94140625 58.14453125 C-66.96182232 51.39962456 -64.24460062 44.5731245 -61.66064453 37.66772461 C-60.48504985 34.66881809 -59.10958625 31.85503255 -57.61328125 29.0078125 C-55.8075815 25.34190131 -54.34037139 21.53114834 -52.82421875 17.73828125 C-51.578125 14.90625 -51.578125 14.90625 -50.0859375 12.4609375 C-47.72492933 8.46068014 -46.34439042 4.12311095 -44.76171875 -0.23046875 C-43.578125 -3.09375 -43.578125 -3.09375 -41.578125 -5.09375 C-41.348974 -4.54997208 -41.119823 -4.00619415 -40.88372803 -3.44593811 C-38.48359221 2.24913012 -36.08222945 7.94367988 -33.68017578 13.63793945 C-32.78565958 15.75890229 -31.89144904 17.87999407 -30.99755859 20.0012207 C-29.70752357 23.06235732 -28.4163648 26.12301791 -27.125 29.18359375 C-26.532565 30.5903965 -26.532565 30.5903965 -25.92816162 32.02561951 C-23.54037996 37.68111661 -21.09395065 43.30651423 -18.578125 48.90625 C-19.50625 49.1125 -20.434375 49.31875 -21.390625 49.53125 C-25.43948862 51.27781862 -25.78929559 53.00334947 -27.578125 56.90625 C-29.765625 58.28125 -29.765625 58.28125 -31.578125 58.90625 C-31.578125 59.56625 -31.578125 60.22625 -31.578125 60.90625 C-33.558125 61.23625 -35.538125 61.56625 -37.578125 61.90625 C-37.660625 62.525 -37.743125 63.14375 -37.828125 63.78125 C-38.81637942 66.58130419 -39.98172485 66.64738932 -42.578125 67.90625 C-43.84617066 69.9398448 -43.84617066 69.9398448 -44.578125 71.90625 C-40.83230508 71.33394326 -38.19836438 70.31403939 -34.98828125 68.31640625 C-34.12807373 67.78418457 -33.26786621 67.25196289 -32.3815918 66.70361328 C-31.02481323 65.84485596 -31.02481323 65.84485596 -29.640625 64.96875 C-28.70710205 64.38335449 -27.7735791 63.79795898 -26.81176758 63.19482422 C-7.43966465 52.20611511 -7.43966465 52.20611511 6.421875 35.90625 C6.92322699 33.27846956 6.92322699 33.27846956 6.421875 30.90625 C5.431875 30.24625 4.441875 29.58625 3.421875 28.90625 C10.046875 29.65625 10.046875 29.65625 13.421875 31.90625 C13.30296016 37.61416225 11.74452717 40.51627551 7.859375 44.65234375 C2.68402548 49.43788329 -2.94790813 53.67415274 -8.578125 57.90625 C-9.37863281 58.50824219 -10.17914063 59.11023438 -11.00390625 59.73046875 C-11.52339844 60.11847656 -12.04289062 60.50648437 -12.578125 60.90625 C-11.20068736 65.22097263 -9.59186252 69.35585953 -7.79296875 73.51171875 C-7.53181778 74.1176033 -7.27066681 74.72348785 -7.00160217 75.34773254 C-6.175263 77.26408357 -5.34567774 79.1790049 -4.515625 81.09375 C-3.68244047 83.01939088 -2.84998123 84.94533726 -2.01893616 86.87190247 C-1.26803912 88.61214736 -0.51481781 90.35138881 0.23852539 92.09057617 C1.421875 94.90625 1.421875 94.90625 2.421875 97.90625 C-2.69169075 97.59805231 -7.59647055 97.1392233 -12.578125 95.90625 C-14.703125 92.90625 -14.703125 92.90625 -15.109375 91.04296875 C-15.70672547 88.32004621 -16.89640735 86.17610515 -18.203125 83.71875 C-19.7262594 80.78787018 -20.90768726 78.14669907 -21.578125 74.90625 C-25.31130031 76.34208666 -27.43179485 78.72916847 -30.015625 81.6640625 C-31.578125 82.90625 -31.578125 82.90625 -35.578125 82.90625 C-40.2098918 84.75895672 -44.3245086 87.86666566 -48.140625 91.03125 C-50.578125 92.90625 -50.578125 92.90625 -52.765625 93.73046875 C-56.47031597 95.27923539 -59.65557098 97.41219208 -63.015625 99.59375 C-69.30457355 103.60883476 -75.65268008 107.04950419 -82.36328125 110.31640625 C-85.42534547 111.8306956 -88.42146679 113.40490966 -91.390625 115.09375 C-92.18082031 115.54105469 -92.97101563 115.98835937 -93.78515625 116.44921875 C-95.90336866 118.17055476 -96.23040208 119.24417456 -96.578125 121.90625 C-78.86941504 133.82557401 -57.50025324 138.11527302 -36.5 134.02734375 C-22.1577412 130.7563273 -9.56814068 124.81843577 1.421875 114.90625 C2.10636719 114.31457031 2.79085937 113.72289062 3.49609375 113.11328125 C13.58778153 103.81465342 19.66798099 91.93447039 23.421875 78.90625 C23.66679687 78.06835938 23.91171875 77.23046875 24.1640625 76.3671875 C28.55426397 58.38540338 24.72695893 38.22586555 15.359375 22.53125 C3.85134369 5.23255326 -13.11110218 -7.59018172 -33.515625 -12.46875 C-34.8658317 -12.70136988 -36.22023328 -12.91126653 -37.578125 -13.09375 C-38.55652344 -13.25617187 -38.55652344 -13.25617187 -39.5546875 -13.421875 C-63.74091948 -16.86411026 -86.33869174 -10.35128441 -105.203125 5.15625 Z " fill="#B9B8B8" transform="translate(149.578125,34.09375)"/>
<path d="M0 0 C2.61927532 1.30963766 2.79757889 2.42573221 3.92358398 5.1015625 C4.29414413 5.97337158 4.66470428 6.84518066 5.04649353 7.7434082 C5.4423616 8.6943335 5.83822968 9.64525879 6.24609375 10.625 C6.65787369 11.60106201 7.06965363 12.57712402 7.49391174 13.58276367 C8.36703135 15.65621995 9.23688544 17.73105383 10.10375977 19.80712891 C11.42159135 22.96191592 12.74991092 26.11211607 14.08007812 29.26171875 C14.9277148 31.27838053 15.77473909 33.29529984 16.62109375 35.3125 C17.01493759 36.24723145 17.40878143 37.18196289 17.81455994 38.14501953 C20.12619014 43.69365463 22.19226265 49.26690424 24 55 C23.38300735 55.33354996 22.76601471 55.66709991 22.13032532 56.01075745 C11.91342603 61.53675232 1.7403636 67.11783063 -8.3125 72.9375 C-22.98838179 81.38530533 -37.92354461 89.63105773 -53.5 96.3125 C-54.13905273 96.59649658 -54.77810547 96.88049316 -55.43652344 97.1730957 C-61.25890153 99.54874309 -67.07182704 99.89637948 -73.0625 98.0625 C-75.23942783 95.74512521 -75.43724744 95.01669457 -75.6875 91.9375 C-75.40673738 86.05116647 -72.30098108 81.70586291 -69 77 C-68.67 77.99 -68.34 78.98 -68 80 C-68.495 80.99 -68.495 80.99 -69 82 C-69.16669318 85.54171978 -69.16669318 85.54171978 -69 89 C-67.87113285 90.34824205 -67.87113285 90.34824205 -64.91796875 90.20703125 C-60.74984005 89.98678118 -57.2119772 89.06077703 -53.3125 87.6875 C-52.66216797 87.47416016 -52.01183594 87.26082031 -51.34179688 87.04101562 C-47.71975249 85.80412993 -44.995783 84.34107545 -42 82 C-40.205625 81.5978125 -40.205625 81.5978125 -38.375 81.1875 C-37.26125 80.795625 -36.1475 80.40375 -35 80 C-33.89418496 77.25366521 -33.89418496 77.25366521 -33 74 C-32.06073225 71.79564438 -31.09254146 69.60347265 -30.1015625 67.421875 C-29.82533051 66.81039612 -29.54909851 66.19891724 -29.26449585 65.56890869 C-28.38743796 63.62800205 -27.50660176 61.68884647 -26.625 59.75 C-21.51217626 48.50910171 -21.51217626 48.50910171 -16.84350586 37.07788086 C-15.69687266 34.25328022 -14.32403033 31.56600855 -12.93359375 28.85546875 C-11.10756686 25.22633581 -9.57426985 21.47562383 -8.1015625 17.69140625 C-5.72884407 11.60775621 -3.0085509 5.79515952 0 0 Z " fill="#B70302" transform="translate(107,28)"/>
<path d="M0 0 C2.5578025 2.22826966 5.00182781 4.52941794 7.421875 6.90625 C8.1953125 7.65519531 8.96875 8.40414062 9.765625 9.17578125 C18.18396961 17.86801036 24.46876152 29.13820379 27.421875 40.90625 C27.62425781 41.61007813 27.82664063 42.31390625 28.03515625 43.0390625 C32.85628166 62.38915769 28.35619409 82.73615014 18.796875 99.84375 C6.03279017 120.02655419 -12.30622541 132.31066379 -35.578125 137.90625 C-60.34489736 141.72828277 -82.45277705 137.17686621 -102.890625 122.59375 C-105.1375606 120.89736523 -107.23190127 119.26595203 -109.18359375 117.23828125 C-110.65432661 115.64385007 -110.65432661 115.64385007 -113.578125 114.90625 C-114.63118188 113.27258878 -115.62363479 111.59939093 -116.578125 109.90625 C-117.85713319 108.18841892 -119.1495252 106.48049487 -120.453125 104.78125 C-132.84037385 87.83386009 -136.47045191 67.88920596 -133.953125 47.34375 C-130.22437168 26.30106521 -117.02396411 8.1021392 -99.75 -4.08984375 C-69.25123224 -23.95911486 -28.69215708 -23.30150939 0 0 Z M-105.203125 5.15625 C-105.73663574 5.59275879 -106.27014648 6.02926758 -106.81982422 6.47900391 C-108.11455668 7.57362974 -109.3521929 8.73508463 -110.578125 9.90625 C-110.578125 10.56625 -110.578125 11.22625 -110.578125 11.90625 C-111.238125 11.90625 -111.898125 11.90625 -112.578125 11.90625 C-114.12015569 13.81182427 -115.51520021 15.69709568 -116.890625 17.71875 C-117.29361816 18.3075293 -117.69661133 18.89630859 -118.11181641 19.50292969 C-123.40309573 27.41747315 -126.75661253 35.84770995 -129.578125 44.90625 C-129.908125 43.58625 -130.238125 42.26625 -130.578125 40.90625 C-133.22154485 50.81907443 -132.77068251 60.73032634 -132.578125 70.90625 C-131.918125 69.91625 -131.258125 68.92625 -130.578125 67.90625 C-130.72121094 68.88464844 -130.72121094 68.88464844 -130.8671875 69.8828125 C-131.53166681 75.12138193 -131.79605767 78.94851816 -129.578125 83.90625 C-129.248125 82.58625 -128.918125 81.26625 -128.578125 79.90625 C-128.17722656 80.91042969 -127.77632812 81.91460937 -127.36328125 82.94921875 C-118.4590061 104.61992847 -104.51392961 120.64959173 -82.58203125 129.84375 C-59.81721862 137.89580336 -36.88982619 136.89304991 -15.015625 126.59375 C-8.94390843 123.32817019 -3.69020721 119.51697213 1.421875 114.90625 C2.10636719 114.31457031 2.79085937 113.72289062 3.49609375 113.11328125 C13.58778153 103.81465342 19.66798099 91.93447039 23.421875 78.90625 C23.66679687 78.06835938 23.91171875 77.23046875 24.1640625 76.3671875 C28.55426397 58.38540338 24.72695893 38.22586555 15.359375 22.53125 C3.85134369 5.23255326 -13.11110218 -7.59018172 -33.515625 -12.46875 C-34.8658317 -12.70136988 -36.22023328 -12.91126653 -37.578125 -13.09375 C-38.55652344 -13.25617187 -38.55652344 -13.25617187 -39.5546875 -13.421875 C-63.74091948 -16.86411026 -86.33869174 -10.35128441 -105.203125 5.15625 Z " fill="#E2A455" transform="translate(149.578125,34.09375)"/>
<path d="M0 0 C5.82721437 -0.34963286 9.88576391 -0.19639756 15 3 C16 4 16 4 16.0625 7 C14.28540929 17.40867414 1.02637465 25.21745176 -7 31 C-8.32264965 31.68761917 -9.65386245 32.35958145 -11 33 C-10.68772461 33.67466309 -10.37544922 34.34932617 -10.05371094 35.04443359 C-8.61650641 38.1534123 -7.18323411 41.26418906 -5.75 44.375 C-5.01330078 45.96634766 -5.01330078 45.96634766 -4.26171875 47.58984375 C4 65.5453125 4 65.5453125 4 70 C-2.93 69.505 -2.93 69.505 -10 69 C-11.45908033 65.60448589 -12.91729153 62.20860301 -14.375 58.8125 C-14.7875 57.85279297 -15.2 56.89308594 -15.625 55.90429688 C-16.22441406 54.50727539 -16.22441406 54.50727539 -16.8359375 53.08203125 C-17.20251465 52.22843018 -17.5690918 51.3748291 -17.94677734 50.49536133 C-18.99627153 48.00883373 -20.0057969 45.50908569 -21 43 C-26.29252398 44.45462227 -30.2566543 46.9126295 -34.75 49.9375 C-36.27754456 50.94308116 -37.80622525 51.94693821 -39.3359375 52.94921875 C-40.11420898 53.4601709 -40.89248047 53.97112305 -41.69433594 54.49755859 C-52.99277282 61.85996654 -64.65787767 68.56971641 -76.4375 75.125 C-77.04011658 75.4610022 -77.64273315 75.79700439 -78.26361084 76.14318848 C-88.46571249 81.82190416 -88.46571249 81.82190416 -92 83 C-91.35242213 77.81937707 -89.51741431 72.13846562 -85.43652344 68.671875 C-83.50079071 67.4996046 -81.53566494 66.48876462 -79.5 65.5 C-77.88649412 64.65917323 -76.27462736 63.81519653 -74.6640625 62.96875 C-73.77106445 62.50597656 -72.87806641 62.04320312 -71.95800781 61.56640625 C-66.18929658 58.51159845 -60.53797273 55.24528786 -54.875 52 C-54.26593811 51.65175171 -53.65687622 51.30350342 -53.02935791 50.94470215 C-43.53994713 45.51614767 -34.16174646 39.96595066 -25 34 C-24.26604004 33.5261084 -23.53208008 33.0522168 -22.77587891 32.56396484 C-5.63613738 22.53713572 -5.63613738 22.53713572 7 8 C7.25196129 5.29046449 7.25196129 5.29046449 7 3 C4.69 2.34 2.38 1.68 0 1 C0 0.67 0 0.34 0 0 Z " fill="#A91507" transform="translate(148,62)"/>
<path d="M0 0 C5.82721437 -0.34963286 9.88576391 -0.19639756 15 3 C16 4 16 4 16.0625 7 C14.28540929 17.40867414 1.02637465 25.21745176 -7 31 C-8.32264965 31.68761917 -9.65386245 32.35958145 -11 33 C-10.68772461 33.67466309 -10.37544922 34.34932617 -10.05371094 35.04443359 C-8.61650641 38.1534123 -7.18323411 41.26418906 -5.75 44.375 C-5.25886719 45.43589844 -4.76773438 46.49679688 -4.26171875 47.58984375 C4 65.5453125 4 65.5453125 4 69 C-0.66485423 69.69460996 -5.07516595 69.85192894 -9 67 C-14.36811627 59.23297569 -17.87507607 49.17482976 -20 40 C-21.32 40 -22.64 40 -24 40 C-20.03267746 31.07352428 -12.37058033 25.44913434 -4.66015625 19.91796875 C2.30423041 14.99290184 2.30423041 14.99290184 7 8 C7.25196129 5.29046449 7.25196129 5.29046449 7 3 C4.69 2.34 2.38 1.68 0 1 C0 0.67 0 0.34 0 0 Z " fill="#BA0101" transform="translate(148,62)"/>
<path d="M0 0 C1.25854492 2.17724609 1.25854492 2.17724609 2.48046875 5.0234375 C2.92197266 6.044375 3.36347656 7.0653125 3.81835938 8.1171875 C4.27017578 9.19226563 4.72199219 10.26734375 5.1875 11.375 C5.65091797 12.44234375 6.11433594 13.5096875 6.59179688 14.609375 C10 22.58025359 10 22.58025359 10 26 C7.30252813 24.65126406 7.01044586 22.86819999 5.9296875 20.171875 C4.48244347 16.79091835 2.71950292 13.5748801 0.98828125 10.33203125 C0 8 0 8 0 4 C-0.51949219 4.47050781 -1.03898437 4.94101563 -1.57421875 5.42578125 C-5.21294277 8.67440177 -8.66419713 11.69660472 -13 14 C-13.495 13.01 -13.495 13.01 -14 12 C-20.53799204 16.47959966 -20.53799204 16.47959966 -26.8125 21.3125 C-29 23 -29 23 -31.171875 23.8125 C-34.88003646 25.36951807 -38.07200987 27.50241262 -41.4375 29.6875 C-47.72713361 33.70302212 -54.07286136 37.14804716 -60.7890625 40.40625 C-69.43652553 44.44487952 -69.43652553 44.44487952 -76 51 C-77.32 49.68 -78.64 48.36 -80 47 C-74.03416856 35.10933941 -74.03416856 35.10933941 -69 32 C-69.309375 32.763125 -69.61875 33.52625 -69.9375 34.3125 C-70.67893593 36.18789677 -71.36228217 38.08684652 -72 40 C-67.48503516 37.4711088 -62.97512697 34.93343377 -58.46826172 32.39013672 C-56.82541089 31.46487533 -55.18120599 30.54201397 -53.53564453 29.62158203 C-41.45355694 22.86212471 -29.67948005 15.73983161 -18.05078125 8.2265625 C-16.36807364 7.14965578 -14.68447116 6.07414613 -13 5 C-12.08911621 4.41186523 -11.17823242 3.82373047 -10.23974609 3.21777344 C-9.34980957 2.65864258 -8.45987305 2.09951172 -7.54296875 1.5234375 C-6.34256958 0.76039307 -6.34256958 0.76039307 -5.11791992 -0.01806641 C-3 -1 -3 -1 0 0 Z " fill="#AA9C88" transform="translate(128,105)"/>
<path d="M0 0 C0.33 0 0.66 0 1 0 C1.12547851 4.31916321 1.21520018 8.63730567 1.2746582 12.95776367 C1.29949426 14.42116823 1.33337629 15.88445296 1.37719727 17.34741211 C1.67726606 27.63800664 0.53172607 35.53649438 -4 45 C-4.44561279 45.96131836 -4.89122559 46.92263672 -5.3503418 47.91308594 C-14.72654745 67.43976598 -32.4549449 80.1261277 -52.421875 87.21484375 C-72.44841029 93.69808847 -94.82513501 92.9291194 -114 84 C-115.75 82.5 -115.75 82.5 -117 81 C-117.556875 80.443125 -118.11375 79.88625 -118.6875 79.3125 C-119.120625 78.879375 -119.55375 78.44625 -120 78 C-114.73895964 79.70372521 -109.63819817 81.71300246 -104.51171875 83.78125 C-96.31468603 86.6260489 -88.66153459 87.3869662 -80 87.375 C-78.90582764 87.37483887 -77.81165527 87.37467773 -76.68432617 87.37451172 C-65.08505593 87.21287906 -54.93116886 84.7276797 -44 81 C-44 80.34 -44 79.68 -44 79 C-42.08292217 77.74698831 -40.11334888 76.57402736 -38.125 75.4375 C-24.89015721 67.57711186 -14.91503475 56.76357879 -8 43 C-7.34 43 -6.68 43 -6 43 C-5.53916965 41.50076525 -5.08149574 40.00056026 -4.625 38.5 C-4.24214844 37.24703125 -4.24214844 37.24703125 -3.8515625 35.96875 C-3.57054687 34.9890625 -3.28953125 34.009375 -3 33 C-2.649375 31.8346875 -2.29875 30.669375 -1.9375 29.46875 C-0.52235174 23.73217586 -0.53663493 17.87947063 -0.375 12 C-0.33632812 10.84371094 -0.29765625 9.68742187 -0.2578125 8.49609375 C-0.16419668 5.6642152 -0.07846325 2.83233206 0 0 Z " fill="#F4D68A" transform="translate(176,82)"/>
<path d="M0 0 C0 4.73632524 -2.17031237 8.68268912 -4 13 C-4.33515625 13.79535156 -4.6703125 14.59070313 -5.015625 15.41015625 C-6.49645638 18.8360479 -8.02265216 22.03799718 -9.9375 25.25 C-11.7492004 28.31706216 -12.98060164 31.45431531 -14.21875 34.79296875 C-16.83680166 41.68055463 -19.70788559 48.42531464 -22.71166992 55.15112305 C-23.57403005 57.08840209 -24.42269222 59.03135404 -25.27148438 60.97460938 C-25.82729927 62.22432591 -26.38391011 63.47368881 -26.94140625 64.72265625 C-27.43326416 65.83390869 -27.92512207 66.94516113 -28.43188477 68.09008789 C-32.96520596 76.50245832 -41.47585733 78.27459384 -50 81 C-50 80.34 -50 79.68 -50 79 C-46.535 78.505 -46.535 78.505 -43 78 C-43 77.34 -43 76.68 -43 76 C-41.02 75.505 -41.02 75.505 -39 75 C-39 74.34 -39 73.68 -39 73 C-38.34 73 -37.68 73 -37 73 C-36.76667969 72.23558594 -36.53335938 71.47117187 -36.29296875 70.68359375 C-34.54341338 65.69921093 -32.43153687 60.89936338 -30.3125 56.0625 C-29.64202637 54.52650146 -29.64202637 54.52650146 -28.95800781 52.95947266 C-25.43050246 44.91053096 -21.7570994 36.94384277 -18 29 C-16.84860911 26.52338705 -15.70478017 24.04332608 -14.5625 21.5625 C-14.06878906 20.49128906 -13.57507813 19.42007813 -13.06640625 18.31640625 C-12.71449219 17.55199219 -12.36257812 16.78757812 -12 16 C-11.34 16 -10.68 16 -10 16 C-9.79375 14.824375 -9.5875 13.64875 -9.375 12.4375 C-8.18330718 7.58437417 -5.60660091 4.38118835 -2 1 C-1.34 0.67 -0.68 0.34 0 0 Z " fill="#D0D0D0" transform="translate(103,35)"/>
<path d="M0 0 C-0.1875 1.875 -0.1875 1.875 -1 4 C-3.5625 5.25 -3.5625 5.25 -6 6 C-6 6.66 -6 7.32 -6 8 C-12.58515284 10.91266376 -12.58515284 10.91266376 -15.375 11.5 C-15.91125 11.665 -16.4475 11.83 -17 12 C-17.33 12.99 -17.66 13.98 -18 15 C-19.90702297 15.73604395 -21.81884625 16.46227653 -23.75390625 17.12109375 C-26.75864108 18.29685955 -29.28305694 19.96992844 -31.9765625 21.7265625 C-40.35582822 27 -40.35582822 27 -44 27 C-44 27.66 -44 28.32 -44 29 C-48.55957854 31.61581263 -53.04498615 34.08554094 -57.9296875 36.05078125 C-60.84129104 37.385724 -63.58397067 38.99214127 -66.375 40.5625 C-73.10343915 44.22833926 -79.25797061 46.49948577 -87 46 C-87 42 -87 42 -85 40 C-83.16992188 39.5012207 -83.16992188 39.5012207 -80.96875 39.11328125 C-75.84984378 38.05704761 -71.27880132 36.27599254 -66.5 34.1875 C-65.60128174 33.79715576 -64.70256348 33.40681152 -63.77661133 33.00463867 C-44.54706732 24.48909769 -26.29375862 14.08361972 -8.26049805 3.3059082 C-2.53804449 0 -2.53804449 0 0 0 Z " fill="#9E917C" transform="translate(124,87)"/>
<path d="M0 0 C1.99276872 2.98915308 2.98989973 5.56541734 4.1875 8.9375 C12.03141241 29.44535215 25.0201644 42.15169462 44.3125 51.8125 C64.41046657 60.23784843 84.58500093 59.96878007 105.14453125 53.55126953 C107.40489621 52.8797032 109.6772334 52.40095376 112 52 C108.75910492 54.76661775 105.69232756 55.92091935 101.625 57.125 C100.52414063 57.45757812 99.42328125 57.79015625 98.2890625 58.1328125 C78.29147434 63.40533574 57.624991 60.23881955 39 52 C40.32 52.99 41.64 53.98 43 55 C34.22641112 53.76695508 26.9204431 47.30194411 20.65625 41.3828125 C18.93657491 39.77593461 18.93657491 39.77593461 16 39 C14.94694312 37.36633878 13.95449021 35.69314093 13 34 C11.72099181 32.28216892 10.4285998 30.57424487 9.125 28.875 C2.21580736 19.35255184 -0.93236766 11.8721482 0 0 Z " fill="#C3734C" transform="translate(20,110)"/>
<path d="M0 0 C0.75 1.75 0.75 1.75 1 4 C-0.29269286 5.37277118 -1.63364384 6.70052841 -3 8 C-7.56039818 13.32046454 -11.10090405 18.62198891 -14 25 C-22.22802491 22.1859012 -27.32037093 15.0194436 -32 8 C-31.67 7.34 -31.34 6.68 -31 6 C-30.34 6.33 -29.68 6.66 -29 7 C-29 7.66 -29 8.32 -29 9 C-20.0321979 8.18170893 -12.98807563 5.44388206 -5.0546875 1.4609375 C-2 0 -2 0 0 0 Z " fill="#DCDBDA" transform="translate(63,127)"/>
<path d="M0 0 C0.66 0 1.32 0 2 0 C3.19942605 2.59925496 4.38472821 5.20345507 5.5625 7.8125 C5.90474609 8.55048828 6.24699219 9.28847656 6.59960938 10.04882812 C6.91865234 10.76103516 7.23769531 11.47324219 7.56640625 12.20703125 C7.86490479 12.8616333 8.16340332 13.51623535 8.47094727 14.19067383 C9 16 9 16 8 19 C6.08227539 20.53393555 6.08227539 20.53393555 3.59765625 22.13671875 C2.70755859 22.71357422 1.81746094 23.29042969 0.90039062 23.88476562 C-0.03611328 24.47966797 -0.97261719 25.07457031 -1.9375 25.6875 C-2.87013672 26.29400391 -3.80277344 26.90050781 -4.76367188 27.52539062 C-11.7247346 32 -11.7247346 32 -14 32 C-12.65881434 27.7538396 -11.05787106 23.76265908 -9.1796875 19.7265625 C-8.64472656 18.57285156 -8.10976562 17.41914062 -7.55859375 16.23046875 C-7.00300781 15.04066406 -6.44742188 13.85085937 -5.875 12.625 C-5.30569502 11.39987642 -4.73668183 10.17461721 -4.16796875 8.94921875 C-2.7815068 5.96480066 -1.3920964 2.98179297 0 0 Z " fill="#FBF4EA" transform="translate(105,59)"/>
<path d="M0 0 C5.82721437 -0.34963286 9.88576391 -0.19639756 15 3 C16 4 16 4 16.0625 7 C14.28540929 17.40867414 1.02637465 25.21745176 -7 31 C-9.421875 32.31640625 -9.421875 32.31640625 -11 33 C-11 32.01 -11 31.02 -11 30 C-12.98 30 -14.96 30 -17 30 C-14.10053755 26.9439938 -11.06162566 24.49316661 -7.625 22.0625 C1.02535243 16.26614402 1.02535243 16.26614402 7 8 C7.25196129 5.29046449 7.25196129 5.29046449 7 3 C4.69 2.34 2.38 1.68 0 1 C0 0.67 0 0.34 0 0 Z " fill="#C90203" transform="translate(148,62)"/>
<path d="M0 0 C0 0.66 0 1.32 0 2 C-1.11375 2.53625 -2.2275 3.0725 -3.375 3.625 C-6.44576082 5.34958891 -6.93019379 5.84217726 -8.4375 9.25 C-8.623125 10.1575 -8.80875 11.065 -9 12 C-5.52465524 10.77893292 -3.55325931 9.58501627 -1 7 C3.46136835 3.70867069 7.35260764 1.42355443 13 1 C9.94669936 4.23256749 6.38525537 6.29161626 2.5625 8.5 C1.82692871 8.92853271 1.09135742 9.35706543 0.33349609 9.79858398 C-5.69630445 13.2908802 -11.77606279 16.69266353 -17.875 20.0625 C-18.73665771 20.53945312 -19.59831543 21.01640625 -20.48608398 21.5078125 C-21.29247314 21.94996094 -22.0988623 22.39210937 -22.9296875 22.84765625 C-24.00065674 23.4355896 -24.00065674 23.4355896 -25.09326172 24.03540039 C-27 25 -27 25 -30 26 C-29.31641364 20.53130915 -27.48043388 14.97194807 -23.06591797 11.46240234 C-20.77432959 10.09289707 -18.45587845 8.86977128 -16.0625 7.6875 C-14.46987643 6.85841025 -12.87742382 6.02899199 -11.28515625 5.19921875 C-10.54023926 4.82200684 -9.79532227 4.44479492 -9.02783203 4.05615234 C-7.33439235 3.174161 -5.68893684 2.20082604 -4.05859375 1.20703125 C-2 0 -2 0 0 0 Z " fill="#9A0304" transform="translate(86,119)"/>
<path d="M0 0 C5.26104036 1.70372521 10.36180183 3.71300246 15.48828125 5.78125 C23.68507401 8.62596562 31.33862651 9.38762978 40 9.375 C41.64234619 9.37367065 41.64234619 9.37367065 43.31787109 9.37231445 C55.31989486 9.19899685 66.02691411 6.922374 77 2 C77 4 77 4 75.98046875 5.4609375 C73.0719881 7.7211769 69.79285082 8.58952372 66.3125 9.625 C65.28866211 9.94984375 65.28866211 9.94984375 64.24414062 10.28125 C45.45118055 16.0309375 23.74266519 14.26218991 6 6 C4.25 4.5 4.25 4.5 3 3 C2.443125 2.443125 1.88625 1.88625 1.3125 1.3125 C0.879375 0.879375 0.44625 0.44625 0 0 Z " fill="#F7CA37" transform="translate(56,160)"/>
<path d="M0 0 C0.66 0.33 1.32 0.66 2 1 C-7.54891607 6.21822065 -17.14483856 11.27439074 -27.125 15.625 C-28.25869019 16.13836914 -28.25869019 16.13836914 -29.4152832 16.66210938 C-35.67552626 19.31425242 -41.48998584 20.07449413 -48.0625 18.0625 C-50.41708423 15.55600711 -50.29142804 14.6629418 -50.3125 11.3125 C-50.23217143 9.87347107 -50.13536774 8.43489809 -50 7 C-49.01 6.67 -48.02 6.34 -47 6 C-46.34 7.98 -45.68 9.96 -45 12 C-42.77057252 11.85820962 -40.54146372 11.71140302 -38.3125 11.5625 C-37.07113281 11.48128906 -35.82976563 11.40007812 -34.55078125 11.31640625 C-31.14402739 11.08157275 -31.14402739 11.08157275 -28.41796875 10.46484375 C-26 10 -26 10 -23.328125 10.25390625 C-18.19267867 9.8621175 -14.23416101 7.35080567 -9.75 4.9375 C-7.95686041 3.98124355 -6.16014961 3.03164353 -4.359375 2.08984375 C-3.57014648 1.66566162 -2.78091797 1.24147949 -1.96777344 0.80444336 C-1.3184082 0.53897705 -0.66904297 0.27351074 0 0 Z " fill="#840704" transform="translate(82,108)"/>
<path d="M0 0 C0.93700433 2.52645478 1.09543233 3.71882129 0.21704102 6.30688477 C-0.20391846 7.15565186 -0.62487793 8.00441895 -1.05859375 8.87890625 C-3.12145356 13.16637688 -5.09422652 17.46787982 -6.97265625 21.83984375 C-7.47990234 23.00451172 -7.98714844 24.16917969 -8.50976562 25.36914062 C-9.55555195 27.77247599 -10.59448697 30.17880292 -11.62695312 32.58789062 C-12.13291016 33.74353516 -12.63886719 34.89917969 -13.16015625 36.08984375 C-13.61011963 37.13003662 -14.06008301 38.17022949 -14.52368164 39.24194336 C-18.97195821 47.55220967 -27.60774291 49.31676134 -36 52 C-36 51.34 -36 50.68 -36 50 C-32.535 49.505 -32.535 49.505 -29 49 C-29 48.34 -29 47.68 -29 47 C-27.02 46.505 -27.02 46.505 -25 46 C-25 45.34 -25 44.68 -25 44 C-24.34 44 -23.68 44 -23 44 C-22.731875 43.071875 -22.46375 42.14375 -22.1875 41.1875 C-21.03084794 38.08280237 -20.33341464 37.14674147 -18 35 C-15.62490923 31.48486566 -14.22572725 28.05432859 -13 24 C-12.01 24 -11.02 24 -10 24 C-10 22.68 -10 21.36 -10 20 C-9.34 20 -8.68 20 -8 20 C-8 19.01 -8 18.02 -8 17 C-7.34 17 -6.68 17 -6 17 C-5.95101562 16.39671875 -5.90203125 15.7934375 -5.8515625 15.171875 C-5.77679688 14.37265625 -5.70203125 13.5734375 -5.625 12.75 C-5.55539063 11.96109375 -5.48578125 11.1721875 -5.4140625 10.359375 C-4.98492887 7.914123 -4.21399362 6.15163097 -3 4 C-2.34 4 -1.68 4 -1 4 C-0.67 2.68 -0.34 1.36 0 0 Z " fill="#A19886" transform="translate(89,64)"/>
<path d="M0 0 C5.21988328 -0.22724204 9.24988712 0.44208371 14.1875 2.125 C14.83098389 2.34365723 15.47446777 2.56231445 16.13745117 2.78759766 C21.58072215 4.70338202 26.6454834 7.18767377 31.70703125 9.9609375 C32.46371094 10.30382813 33.22039062 10.64671875 34 11 C34.66 10.67 35.32 10.34 36 10 C47.20512561 18.17378728 56.63664179 25.97581546 60 40 C59.505 40.99 59.505 40.99 59 42 C58.62230469 41.34515625 58.24460938 40.6903125 57.85546875 40.015625 C46.50641386 21.19798833 30.60334908 8.8158385 9.23046875 2.96875 C6.16168497 2.25059475 3.09636377 1.5863546 0 1 C0 0.67 0 0.34 0 0 Z " fill="#CD7950" transform="translate(108,20)"/>
<path d="M0 0 C2 1 2 1 3 3 C2.1028125 3.0928125 2.1028125 3.0928125 1.1875 3.1875 C-1.87143458 4.3236757 -2.55041099 6.17330142 -4 9 C-3.39027344 9.04382813 -2.78054687 9.08765625 -2.15234375 9.1328125 C0 10 0 10 1.30859375 12.5546875 C1.86740234 14.19824219 1.86740234 14.19824219 2.4375 15.875 C4.37516836 21.33898408 6.56500695 26.53789134 9.08203125 31.7578125 C10 34 10 34 10 37 C10.77085937 37.04898438 11.54171875 37.09796875 12.3359375 37.1484375 C13.33882812 37.22320312 14.34171875 37.29796875 15.375 37.375 C16.87160156 37.47941406 16.87160156 37.47941406 18.3984375 37.5859375 C21 38 21 38 23 40 C16.07 39.505 16.07 39.505 9 39 C7.54091967 35.60448589 6.08270847 32.20860301 4.625 28.8125 C4.2125 27.85279297 3.8 26.89308594 3.375 25.90429688 C2.97539062 24.97294922 2.57578125 24.04160156 2.1640625 23.08203125 C1.61419678 21.80162964 1.61419678 21.80162964 1.05322266 20.49536133 C0.00372847 18.00883373 -1.0057969 15.50908569 -2 13 C-3.258125 13.33 -4.51625 13.66 -5.8125 14 C-8.38987302 14.67603227 -10.30212925 15 -13 15 C-12.67 13.68 -12.34 12.36 -12 11 C-13.32 10.67 -14.64 10.34 -16 10 C-13.38321437 8.29948946 -10.75537761 6.61689493 -8.125 4.9375 C-7.37863281 4.45216797 -6.63226563 3.96683594 -5.86328125 3.46679688 C-5.14785156 3.01240234 -4.43242188 2.55800781 -3.6953125 2.08984375 C-3.03547363 1.66566162 -2.37563477 1.24147949 -1.69580078 0.80444336 C-1.13618652 0.53897705 -0.57657227 0.27351074 0 0 Z " fill="#9D1206" transform="translate(129,92)"/>
<path d="M0 0 C1.25854492 2.17724609 1.25854492 2.17724609 2.48046875 5.0234375 C2.92197266 6.044375 3.36347656 7.0653125 3.81835938 8.1171875 C4.49608398 9.72980469 4.49608398 9.72980469 5.1875 11.375 C5.65091797 12.44234375 6.11433594 13.5096875 6.59179688 14.609375 C10 22.58025359 10 22.58025359 10 26 C7.30252813 24.65126406 7.01044586 22.86819999 5.9296875 20.171875 C4.48244347 16.79091835 2.71950292 13.5748801 0.98828125 10.33203125 C0 8 0 8 0 4 C-0.51949219 4.47050781 -1.03898437 4.94101563 -1.57421875 5.42578125 C-5.21294277 8.67440177 -8.66419713 11.69660472 -13 14 C-13 13.01 -13 12.02 -13 11 C-13.763125 11.350625 -14.52625 11.70125 -15.3125 12.0625 C-18 13 -18 13 -21 12 C-17.42863738 8.18787137 -13.85253842 5.39386859 -9.375 2.625 C-8.51648438 2.07392578 -8.51648438 2.07392578 -7.640625 1.51171875 C-3.3666773 -1.12222577 -3.3666773 -1.12222577 0 0 Z " fill="#B0B0B0" transform="translate(128,105)"/>
<path d="M0 0 C2 3 2 3 1.64453125 5.59375 C1.36996094 6.5528125 1.09539062 7.511875 0.8125 8.5 C0.55082031 9.4590625 0.28914063 10.418125 0.01953125 11.40625 C-1 14 -1 14 -2.43603516 15.41137695 C-4.17599173 17.17876649 -5.01185026 18.76354237 -6.04296875 21.01171875 C-6.39423828 21.76904297 -6.74550781 22.52636719 -7.10742188 23.30664062 C-7.46384766 24.09232422 -7.82027344 24.87800781 -8.1875 25.6875 C-8.55552734 26.48478516 -8.92355469 27.28207031 -9.30273438 28.10351562 C-10.2077297 30.06629769 -11.10465652 32.03279639 -12 34 C-12.66 34 -13.32 34 -14 34 C-14.09514893 34.98137939 -14.19029785 35.96275879 -14.28833008 36.97387695 C-14.9338914 41.44750121 -16.57132812 45.30390397 -18.38671875 49.41796875 C-18.72621048 50.19763504 -19.06570221 50.97730133 -19.41548157 51.78059387 C-20.13295267 53.41883477 -20.85513924 55.05501778 -21.58178711 56.68920898 C-22.68532255 59.18258018 -23.76002718 61.68713181 -24.83398438 64.19335938 C-25.53733229 65.78982589 -26.24235477 67.38555592 -26.94921875 68.98046875 C-27.4230323 70.09774605 -27.4230323 70.09774605 -27.90641785 71.2375946 C-30.13670819 76.15281618 -32.24733342 78.40675316 -37 81 C-37.66 80.67 -38.32 80.34 -39 80 C-35.25 77 -35.25 77 -33 77 C-32.72978027 76.14567383 -32.45956055 75.29134766 -32.18115234 74.41113281 C-30.99203578 70.97699957 -29.60429607 67.73007845 -28.1015625 64.421875 C-27.68721451 63.50465668 -27.68721451 63.50465668 -27.26449585 62.56890869 C-26.38743796 60.62800205 -25.50660176 58.68884647 -24.625 56.75 C-19.51217626 45.50910171 -19.51217626 45.50910171 -14.84350586 34.07788086 C-13.69687266 31.25328022 -12.32403033 28.56600855 -10.93359375 25.85546875 C-8.26265535 20.54711837 -6.17782667 14.96268709 -3.984375 9.4453125 C-2.70752637 6.27345836 -1.36328671 3.13555944 0 0 Z " fill="#7D1708" transform="translate(105,31)"/>
<path d="M0 0 C0.66 0 1.32 0 2 0 C2 2 2 2 -0.5 4.625 C-1.325 5.40875 -2.15 6.1925 -3 7 C-2.67 7.66 -2.34 8.32 -2 9 C-5.45434314 11.00695291 -8.9141063 13.00436779 -12.375 15 C-13.35984375 15.57234375 -14.3446875 16.1446875 -15.359375 16.734375 C-16.30039063 17.27578125 -17.24140625 17.8171875 -18.2109375 18.375 C-19.51490479 19.12910156 -19.51490479 19.12910156 -20.84521484 19.8984375 C-23 21 -23 21 -25 21 C-23.97599398 15.06076506 -18.54493034 11.56501722 -14 8 C-10.47262366 5.6582345 -7.10808539 4.02702135 -3 3 C-1.9805881 2.01979625 -0.97753644 1.02196992 0 0 Z " fill="#E9E7E1" transform="translate(109,98)"/>
<path d="M0 0 C0.66 0.33 1.32 0.66 2 1 C-1.75 4 -1.75 4 -4 4 C-4.14566406 5.0415625 -4.29132813 6.083125 -4.44140625 7.15625 C-5.45416817 10.69067332 -6.92803895 11.98935075 -10.02734375 13.90625 C-11.6514545 14.79429103 -13.28886474 15.65836208 -14.9375 16.5 C-16.1740332 17.180625 -16.1740332 17.180625 -17.43554688 17.875 C-21.91926378 20.2643731 -21.91926378 20.2643731 -24 21 C-24.99 20.67 -25.98 20.34 -27 20 C-26.875 18.1875 -26.875 18.1875 -26 16 C-22.79116175 14.04679411 -20.7794561 13 -17 13 C-17 12.01 -17 11.02 -17 10 C-12.77777778 7 -12.77777778 7 -10 7 C-10 6.34 -10 5.68 -10 5 C-8.38007835 4.13624104 -6.75388139 3.28424146 -5.125 2.4375 C-4.22007813 1.96183594 -3.31515625 1.48617187 -2.3828125 0.99609375 C-1.59648438 0.66738281 -0.81015625 0.33867188 0 0 Z " fill="#D9D3C7" transform="translate(90,109)"/>
<path d="M0 0 C0 0.99 0 1.98 0 3 C-3.8209831 1.52387159 -7.49358164 -0.16927842 -11.1875 -1.9375 C-16.68864324 -4.50010545 -22.12726449 -6.48873172 -28 -8 C-28 -8.66 -28 -9.32 -28 -10 C-39.88 -10 -51.76 -10 -64 -10 C-47.00072545 -21.3328497 -15.56037362 -9.2840889 0 0 Z " fill="#F7D053" transform="translate(143,29)"/>
<path d="M0 0 C-4.25699162 4.8245905 -9.28911194 8.05863995 -15 11 C-15.66 11 -16.32 11 -17 11 C-17.33 11.99 -17.66 12.98 -18 14 C-21.0625 15.1875 -21.0625 15.1875 -24 16 C-23.649375 15.21625 -23.29875 14.4325 -22.9375 13.625 C-22.628125 12.75875 -22.31875 11.8925 -22 11 C-22.33 10.34 -22.66 9.68 -23 9 C-16.25 5 -16.25 5 -14 5 C-14 4.34 -14 3.68 -14 3 C-12.88625 2.525625 -11.7725 2.05125 -10.625 1.5625 C-4.51766304 -1.06997283 -4.51766304 -1.06997283 0 0 Z " fill="#A20203" transform="translate(100,116)"/>
<path d="M0 0 C-0.1875 1.875 -0.1875 1.875 -1 4 C-3.5625 5.25 -3.5625 5.25 -6 6 C-6 6.66 -6 7.32 -6 8 C-12.58515284 10.91266376 -12.58515284 10.91266376 -15.375 11.5 C-15.91125 11.665 -16.4475 11.83 -17 12 C-17.33 12.99 -17.66 13.98 -18 15 C-19.77734375 15.9140625 -19.77734375 15.9140625 -21.9375 16.625 C-24.04814864 17.33748756 -26.0056751 18.00283755 -28 19 C-27.84350586 16.72192383 -27.84350586 16.72192383 -27 14 C-24.62329102 12.1472168 -24.62329102 12.1472168 -21.50390625 10.44921875 C-20.38822266 9.83369141 -19.27253906 9.21816406 -18.12304688 8.58398438 C-17.539021 8.27291748 -16.95499512 7.96185059 -16.35327148 7.64135742 C-14.56387756 6.68823376 -12.78819111 5.71291561 -11.01367188 4.73242188 C-2.33506118 0 -2.33506118 0 0 0 Z " fill="#B6A389" transform="translate(124,87)"/>
<path d="M0 0 C0.33 0.99 0.66 1.98 1 3 C0.67 3.66 0.34 4.32 0 5 C-0.16669318 8.54171978 -0.16669318 8.54171978 0 12 C1.12886715 13.34824205 1.12886715 13.34824205 4.08203125 13.20703125 C8.25015995 12.98678118 11.7880228 12.06077703 15.6875 10.6875 C16.33783203 10.47416016 16.98816406 10.26082031 17.65820312 10.04101562 C21.23827535 8.81846293 24.12948469 7.47809044 27 5 C29 6 29 6 30 8 C19.5484145 13.51083599 10.88768214 15.50961197 -1 16 C-4 10.375 -4 10.375 -4 7 C-2.82851724 4.55766765 -1.40263342 2.32311159 0 0 Z " fill="#D73916" transform="translate(38,105)"/>
<path d="M0 0 C0 3 0 3 -1.53125 4.71875 C-2.84375 5.90625 -4.15625 7.09375 -5.46875 8.28125 C-7.33260302 9.98967686 -7.33260302 9.98967686 -7 13 C-12.5685634 17.9850926 -19.08959525 22.16179805 -26 25 C-26.99 24.67 -27.98 24.34 -29 24 C-27.68 23.67 -26.36 23.34 -25 23 C-25.33 22.01 -25.66 21.02 -26 20 C-25.17757812 19.52691406 -24.35515625 19.05382812 -23.5078125 18.56640625 C-14.64671718 13.31728166 -7.26534183 7.33475593 0 0 Z " fill="#DA9249" transform="translate(158,141)"/>
<path d="M0 0 C5.82721437 -0.34963286 9.88576391 -0.19639756 15 3 C16 4 16 4 16.0625 7 C15.21912907 12.50470484 10.96986767 16.38366415 7 20 C4.73828125 21.26171875 4.73828125 21.26171875 3 22 C3 21.01 3 20.02 3 19 C3.99 19 4.98 19 6 19 C6.37125 18.071875 6.37125 18.071875 6.75 17.125 C8 15 8 15 10.0625 14.1875 C12.40039381 13.06296275 12.40039381 13.06296275 12.875 9.625 C12.99354164 6.18729234 12.88838279 4.77703351 11 2 C10.67 2.33 10.34 2.66 10 3 C10.061875 3.928125 10.12375 4.85625 10.1875 5.8125 C10 9 10 9 8 11.375 C7.34 11.91125 6.68 12.4475 6 13 C6 9.58900832 6.49145406 6.36911686 7 3 C4.69 2.34 2.38 1.68 0 1 C0 0.67 0 0.34 0 0 Z " fill="#EB3310" transform="translate(148,62)"/>
<path d="M0 0 C0.66 0 1.32 0 2 0 C3.83978993 4.03548365 5.6726502 8.07402141 7.49926758 12.11547852 C8.12108803 13.48872603 8.74476486 14.86113458 9.37036133 16.23266602 C10.2713862 18.20889957 11.1656014 20.18809495 12.05859375 22.16796875 C12.59798584 23.35672607 13.13737793 24.5454834 13.69311523 25.77026367 C14.8224021 28.56109797 15.54799783 31.03633174 16 34 C13.42615914 33.01541223 12.23465434 32.4373486 10.91015625 29.96875 C10.63042969 29.1540625 10.35070312 28.339375 10.0625 27.5 C8.72221376 23.83268136 7.24647136 20.39837634 5.4375 16.9375 C2.71735738 11.6147518 0 6.0610176 0 0 Z " fill="#EC2710" transform="translate(136,97)"/>
<path d="M0 0 C0 0.66 0 1.32 0 2 C-3.2878978 3.84015498 -6.58091326 5.67095047 -9.875 7.5 C-10.81214844 8.02464844 -11.74929687 8.54929687 -12.71484375 9.08984375 C-13.61074219 9.58613281 -14.50664063 10.08242187 -15.4296875 10.59375 C-16.25710449 11.05458984 -17.08452148 11.51542969 -17.93701172 11.99023438 C-20 13 -20 13 -22 13 C-22.33 14.65 -22.66 16.3 -23 18 C-23.99 18.33 -24.98 18.66 -26 19 C-26 19.99 -26 20.98 -26 22 C-24.68 21.67 -23.36 21.34 -22 21 C-24.35277269 23.72426311 -26.62496331 24.8141763 -30 26 C-29.31641364 20.53130915 -27.48043388 14.97194807 -23.06591797 11.46240234 C-20.77432959 10.09289707 -18.45587845 8.86977128 -16.0625 7.6875 C-14.46987643 6.85841025 -12.87742382 6.02899199 -11.28515625 5.19921875 C-10.54023926 4.82200684 -9.79532227 4.44479492 -9.02783203 4.05615234 C-7.33439235 3.174161 -5.68893684 2.20082604 -4.05859375 1.20703125 C-2 0 -2 0 0 0 Z " fill="#95260A" transform="translate(86,119)"/>
<path d="M0 0 C0.33 0.33 0.66 0.66 1 1 C2.67542976 0.71395102 4.34385343 0.38218767 6 0 C0.50325251 6.01784588 -7.29794297 6.54229579 -15 7 C-15 3 -15 3 -13 1 C-8.64680728 0.16284755 -4.42971632 -0.21093887 0 0 Z " fill="#A09F9C" transform="translate(52,126)"/>
<path d="M0 0 C0.99 0.33 1.98 0.66 3 1 C3 3.97 3 6.94 3 10 C4.32 10.66 5.64 11.32 7 12 C7 12.66 7 13.32 7 14 C4.69 14.66 2.38 15.32 0 16 C-2.52588702 13.63707344 -3.88820837 12.33537489 -5 9 C-4.00390625 6.73828125 -4.00390625 6.73828125 -2.5625 4.3125 C-2.08941406 3.50425781 -1.61632812 2.69601563 -1.12890625 1.86328125 C-0.75636719 1.24839844 -0.38382813 0.63351563 0 0 Z " fill="#C9C6BE" transform="translate(30,114)"/>
<path d="M0 0 C4.5898398 -0.0248244 9.17964001 -0.04291873 13.76953125 -0.05493164 C15.32910849 -0.05994272 16.88868108 -0.06675337 18.44824219 -0.07543945 C20.69727736 -0.08764686 22.9462501 -0.09326068 25.1953125 -0.09765625 C26.23161301 -0.10539818 26.23161301 -0.10539818 27.28884888 -0.11329651 C31.29915055 -0.11375529 35.06545295 0.2264734 39 1 C39 1.33 39 1.66 39 2 C31.60983678 2.78380519 24.30737476 3.05675996 16.88183594 2.97827148 C11.9406133 2.94552844 7.13384927 3.26266803 2.234375 3.87890625 C-0.07266977 4.0039384 -1.80392701 3.67997673 -4 3 C-2.68 2.34 -1.36 1.68 0 1 C0 0.67 0 0.34 0 0 Z " fill="#DCA38D" transform="translate(76,18)"/>
<path d="M0 0 C0.495 0.99 0.495 0.99 1 2 C-3.50929419 7.41752659 -11.282213 9.09827614 -18 10 C-28.0033215 10.34028506 -38.02246078 9.68303271 -48 9 C-48 8.67 -48 8.34 -48 8 C-47.33170166 7.9906543 -46.66340332 7.98130859 -45.97485352 7.97167969 C-22.20986941 7.67529809 -22.20986941 7.67529809 0 0 Z " fill="#F6D369" transform="translate(132,162)"/>
<path d="M0 0 C0.66 0 1.32 0 2 0 C3.75 2.125 3.75 2.125 5 5 C4.35151109 8.97199459 3.47219579 10.58538906 0.4375 13.25 C-0.366875 13.8275 -1.17125 14.405 -2 15 C-2.33 15.66 -2.66 16.32 -3 17 C-3.99 17 -4.98 17 -6 17 C-6 17.99 -6 18.98 -6 20 C-7.32 20.33 -8.64 20.66 -10 21 C-10 15.87744458 -8.47037476 14.62811907 -5 11 C-2.75 9.75 -2.75 9.75 -1 9 C0.4783226 6.04335481 0.06032783 3.25770263 0 0 Z " fill="#D60203" transform="translate(157,64)"/>
<path d="M0 0 C0 3.20395416 -0.74335022 5.09399739 -2 8 C-1.15695313 7.48308594 -0.31390625 6.96617187 0.5546875 6.43359375 C1.65039062 5.77488281 2.74609375 5.11617187 3.875 4.4375 C4.96554688 3.77621094 6.05609375 3.11492187 7.1796875 2.43359375 C8.11039063 1.96050781 9.04109375 1.48742187 10 1 C10.66 1.33 11.32 1.66 12 2 C10.52344953 6.51111628 6.98330413 8.14396627 3.0625 10.3125 C2.11213867 10.8703418 2.11213867 10.8703418 1.14257812 11.43945312 C-0.52487792 12.38101348 -2.26041703 13.19950225 -4 14 C-4.99 13.67 -5.98 13.34 -7 13 C-6.319375 11.948125 -6.319375 11.948125 -5.625 10.875 C-3.89850948 8.03466138 -3.89850948 8.03466138 -2.9375 4.8125 C-2 2 -2 2 0 0 Z " fill="#A1A1A1" transform="translate(58,137)"/>
<path d="M0 0 C0 0.99 0 1.98 0 3 C-3 5 -3 5 -5.625 5.75 C-9.58977805 7.21843631 -12.56281966 9.35807253 -15.94921875 11.85546875 C-16.62597656 12.23316406 -17.30273438 12.61085938 -18 13 C-18.99 12.67 -19.98 12.34 -21 12 C-17.42863738 8.18787137 -13.85253842 5.39386859 -9.375 2.625 C-8.51648438 2.07392578 -8.51648438 2.07392578 -7.640625 1.51171875 C-3.3666773 -1.12222577 -3.3666773 -1.12222577 0 0 Z " fill="#A68F6F" transform="translate(128,105)"/>
<path d="M0 0 C1 4 1 4 -0.4375 6.75 C-1.2109375 7.86375 -1.2109375 7.86375 -2 9 C3.15583853 7.12946558 7.53592535 4.27310624 12.16015625 1.36328125 C15.29413065 -0.14119889 15.86544289 -0.00650146 19 1 C18.43490723 1.31751221 17.86981445 1.63502441 17.28759766 1.9621582 C14.72923033 3.40502264 12.17711227 4.85860271 9.625 6.3125 C8.73554687 6.81201172 7.84609375 7.31152344 6.9296875 7.82617188 C6.07890625 8.31279297 5.228125 8.79941406 4.3515625 9.30078125 C3.56604004 9.74591064 2.78051758 10.19104004 1.97119141 10.6496582 C-0.27486062 12.00826834 -0.27486062 12.00826834 -2 15 C-3.32 13.68 -4.64 12.36 -6 11 C-4.02 7.37 -2.04 3.74 0 0 Z " fill="#BABABA" transform="translate(54,141)"/>
<path d="M0 0 C3.03102984 4.54654476 4.9581541 9.5581178 7.125 14.5625 C7.59292969 15.62919922 8.06085938 16.69589844 8.54296875 17.79492188 C8.98511719 18.81263672 9.42726563 19.83035156 9.8828125 20.87890625 C10.28902832 21.8129126 10.69524414 22.74691895 11.11376953 23.70922852 C12 26 12 26 12 28 C10.68 27.67 9.36 27.34 8 27 C7.67 24.69 7.34 22.38 7 20 C6.34 20 5.68 20 5 20 C-0.74031891 6.3667426 -0.74031891 6.3667426 0 0 Z " fill="#EC230E" transform="translate(117,50)"/>
<path d="M0 0 C0.91080427 2.48194162 1.10290094 3.69344096 0.25 6.234375 C-0.1625 7.06453125 -0.575 7.8946875 -1 8.75 C-3.37867346 13.68826012 -5.63026525 18.66032731 -7.8125 23.6875 C-8.42306588 25.08728809 -9.03373404 26.48703158 -9.64453125 27.88671875 C-10.09183594 28.91410156 -10.53914063 29.94148438 -11 31 C-11.33 31 -11.66 31 -12 31 C-12 28.69 -12 26.38 -12 24 C-11.34 24 -10.68 24 -10 24 C-10 22.68 -10 21.36 -10 20 C-9.34 20 -8.68 20 -8 20 C-8 19.01 -8 18.02 -8 17 C-7.34 17 -6.68 17 -6 17 C-5.95101562 16.39671875 -5.90203125 15.7934375 -5.8515625 15.171875 C-5.73941406 13.97304687 -5.73941406 13.97304687 -5.625 12.75 C-5.55539063 11.96109375 -5.48578125 11.1721875 -5.4140625 10.359375 C-4.98492887 7.914123 -4.21399362 6.15163097 -3 4 C-2.34 4 -1.68 4 -1 4 C-0.67 2.68 -0.34 1.36 0 0 Z " fill="#A08D6D" transform="translate(89,64)"/>
<path d="M0 0 C-0.66 0.66 -1.32 1.32 -2 2 C-0.68 2.33 0.64 2.66 2 3 C-3.258011 4.86454291 -8.45322888 6.38727498 -13.9140625 7.52734375 C-16.68101402 8.15431216 -19.33181995 9.04219178 -22 10 C-22 9.01 -22 8.02 -22 7 C-19.72979898 6.01934513 -17.45887746 5.0404231 -15.1875 4.0625 C-14.54490234 3.78470703 -13.90230469 3.50691406 -13.24023438 3.22070312 C-8.603592 1.22670666 -5.06429915 -0.13687295 0 0 Z " fill="#DD9846" transform="translate(78,19)"/>
<path d="M0 0 C4.95 0 9.9 0 15 0 C15 0.66 15 1.32 15 2 C12.36 2 9.72 2 7 2 C6.938125 2.78375 6.87625 3.5675 6.8125 4.375 C6 7 6 7 3.8125 8.375 C0.55384704 9.0991451 -1.77075002 8.75098837 -5 8 C-3.6100869 5.22017379 -1.81341647 5.12536659 1 4 C1.33 3.34 1.66 2.68 2 2 C1.34 2 0.68 2 0 2 C0 1.34 0 0.68 0 0 Z " fill="#C8C8C9" transform="translate(138,131)"/>
<path d="M0 0 C1.32 0 2.64 0 4 0 C4 0.99 4 1.98 4 3 C4.99 3.33 5.98 3.66 7 4 C2.39486061 7.99112081 -2.75483244 10.94456259 -8 14 C-8.66 13.34 -9.32 12.68 -10 12 C-7.03 10.02 -4.06 8.04 -1 6 C-1.99 6 -2.98 6 -4 6 C-4.66 5.67 -5.32 5.34 -6 5 C-5.195625 4.360625 -4.39125 3.72125 -3.5625 3.0625 C-1.7249496 1.59396498 -1.7249496 1.59396498 0 0 Z " fill="#B40B05" transform="translate(113,103)"/>
<path d="M0 0 C2.31 1.65 4.62 3.3 7 5 C6.01 5.495 6.01 5.495 5 6 C4.01 5.67 3.02 5.34 2 5 C1.13375 5.94875 0.2675 6.8975 -0.625 7.875 C-3.49471531 10.77204593 -5.98119358 12.04314133 -10 13 C-8.65515286 8.95838045 -6.9494838 6.61321846 -3.875 3.6875 C-3.15054688 2.99011719 -2.42609375 2.29273438 -1.6796875 1.57421875 C-1.12539063 1.05472656 -0.57109375 0.53523437 0 0 Z " fill="#F0EFEE" transform="translate(41,152)"/>
<path d="M0 0 C-0.60819138 2.75616889 -1.31068102 4.51868959 -3.66503906 6.16259766 C-5.7898633 7.28837635 -7.93638923 8.3164742 -10.125 9.3125 C-10.87910156 9.67150391 -11.63320312 10.03050781 -12.41015625 10.40039062 C-14.26654825 11.28158936 -16.13241339 12.142782 -18 13 C-18 12.34 -18 11.68 -18 11 C-18.66 10.67 -19.32 10.34 -20 10 C-17.04550087 8.3264663 -14.0857982 6.66236015 -11.125 5 C-10.28324219 4.52304688 -9.44148438 4.04609375 -8.57421875 3.5546875 C-7.76855469 3.10351562 -6.96289062 2.65234375 -6.1328125 2.1875 C-5.38918457 1.76855469 -4.64555664 1.34960938 -3.87939453 0.91796875 C-2 0 -2 0 0 0 Z " fill="#A2927B" transform="translate(97,102)"/>
<path d="M0 0 C0.33 0.66 0.66 1.32 1 2 C-2.66980638 11.76204652 -10.13394449 19.3895663 -17 27 C-18.32 26.67 -19.64 26.34 -21 26 C-19.77083333 24.77083333 -18.54166667 23.54166667 -17.3125 22.3125 C-16.57902344 21.57386719 -15.84554687 20.83523437 -15.08984375 20.07421875 C-13.5561358 18.55197777 -11.97738275 17.07477487 -10.375 15.625 C-7.49450213 12.44129182 -5.46954741 9.01573139 -3.33203125 5.3046875 C-2.28713721 3.49680631 -1.15827962 1.73741943 0 0 Z " fill="#F6C83A" transform="translate(171,125)"/>
<path d="M0 0 C-7.75598583 4.93948733 -15.65839399 9.58128947 -23.6875 14.0625 C-24.57276367 14.56370361 -25.45802734 15.06490723 -26.37011719 15.58129883 C-27.61583496 16.27002075 -27.61583496 16.27002075 -28.88671875 16.97265625 C-29.63139404 17.38781494 -30.37606934 17.80297363 -31.14331055 18.23071289 C-31.75601807 18.48457764 -32.36872559 18.73844238 -33 19 C-33.66 18.67 -34.32 18.34 -35 18 C-34.20565552 17.56917114 -34.20565552 17.56917114 -33.39526367 17.12963867 C-30.98969569 15.82098648 -28.58859168 14.50434586 -26.1875 13.1875 C-25.35412109 12.73568359 -24.52074219 12.28386719 -23.66210938 11.81835938 C-22.85966797 11.37685547 -22.05722656 10.93535156 -21.23046875 10.48046875 C-20.49207764 10.07723389 -19.75368652 9.67399902 -18.99291992 9.25854492 C-17.021636 8.01366331 -15.59695997 6.68532816 -14 5 C-12.71407823 4.08638823 -11.39972409 3.21172755 -10.0625 2.375 C-9.39347656 1.94960937 -8.72445312 1.52421875 -8.03515625 1.0859375 C-5.09313056 -0.48389579 -3.08519742 -1.54259871 0 0 Z " fill="#8D1005" transform="translate(99,121)"/>
<path d="M0 0 C3.7207598 1.8603799 4.65039306 6.73824961 6.1875 10.4375 C6.56841797 11.32244141 6.94933594 12.20738281 7.34179688 13.11914062 C7.69693359 13.96541016 8.05207031 14.81167969 8.41796875 15.68359375 C8.74563232 16.46275146 9.0732959 17.24190918 9.41088867 18.04467773 C10 20 10 20 9 22 C6 21 6 21 4.90234375 19.25 C2.23719494 13.03491613 0 6.83039494 0 0 Z " fill="#E93114" transform="translate(107,28)"/>
<path d="M0 0 C0.99 0.33 1.98 0.66 3 1 C2.68676669 3.8190998 1.74001807 5.40342024 0.1875 7.8125 C-4.72044325 11.18069635 -9.32441491 9.91424895 -15 9 C-14.34 8.01 -13.68 7.02 -13 6 C-10.99189537 5.93625065 -8.97862124 5.87970348 -6.97265625 5.9921875 C-4.78486464 6.10605622 -4.78486464 6.10605622 -2 5 C-0.78130071 2.49552484 -0.78130071 2.49552484 0 0 Z " fill="#E7E7E7" transform="translate(145,133)"/>
<path d="M0 0 C0.33 0 0.66 0 1 0 C1 1.65 1 3.3 1 5 C0.34 5 -0.32 5 -1 5 C-1 5.99 -1 6.98 -1 8 C-1.66 8 -2.32 8 -3 8 C-3 9.32 -3 10.64 -3 12 C-3.99 12 -4.98 12 -6 12 C-6.2475 13.010625 -6.495 14.02125 -6.75 15.0625 C-7.89660638 19.13378354 -9.79741473 22.40244406 -12 26 C-12.33 25.34 -12.66 24.68 -13 24 C-11.9747506 21.2473963 -10.88865303 18.61163372 -9.6875 15.9375 C-9.36587891 15.19177734 -9.04425781 14.44605469 -8.71289062 13.67773438 C-6.2587008 8.1293504 -6.2587008 8.1293504 -4 7 C-2.88365848 5.34948712 -2.88365848 5.34948712 -1.875 3.4375 C-1.25625 2.303125 -0.6375 1.16875 0 0 Z " fill="#C0C0C0" transform="translate(82,76)"/>
<path d="M0 0 C4.17373882 1.35161557 8.24052118 2.86921972 12.3125 4.5 C17.5218601 6.52519848 22.51164771 7.97674788 28 9 C28 9.33 28 9.66 28 10 C19.90280347 10.50085752 13.17159601 10.06889413 6 6 C4.328125 4.46875 4.328125 4.46875 3 3 C2.443125 2.443125 1.88625 1.88625 1.3125 1.3125 C0.879375 0.879375 0.44625 0.44625 0 0 Z " fill="#F6DA88" transform="translate(56,160)"/>
<path d="M0 0 C1.46921926 2.93843852 1 5.75397821 1 9 C2.00561116 10.22549523 2.00561116 10.22549523 4.0390625 10.1328125 C9.13546067 10.11741553 13.9773694 9.87350097 19 9 C15.593364 12.406636 12.2106692 13.14790091 7.5 13.3125 C3.55318869 13.18071999 0.82171205 13.00375799 -2 10 C-2.41011714 6.95649912 -2.28781448 4.05083351 -2 1 C-1.34 0.67 -0.68 0.34 0 0 Z " fill="#59210B" transform="translate(34,114)"/>
<path d="M0 0 C0.66 0.33 1.32 0.66 2 1 C0.94512267 1.96671756 -0.11933281 2.92298745 -1.1875 3.875 C-1.77917969 4.40867187 -2.37085937 4.94234375 -2.98046875 5.4921875 C-5.23696778 7.17692372 -7.38475811 7.96305278 -10 9 C-12.85304525 10.70157669 -15.65203546 12.46073973 -18.44726562 14.25390625 C-22.79776213 17 -22.79776213 17 -25 17 C-25 16.34 -25 15.68 -25 15 C-22.83203125 13.5546875 -22.83203125 13.5546875 -19.8125 11.875 C-16.28709981 9.88803247 -12.79468352 7.89680263 -9.37890625 5.7265625 C-8.79326904 5.35547363 -8.20763184 4.98438477 -7.60424805 4.60205078 C-5.93923886 3.54093946 -4.27813063 2.47371465 -2.6171875 1.40625 C-1.75351563 0.9421875 -0.88984375 0.478125 0 0 Z " fill="#BDBDBD" transform="translate(104,121)"/>
<path d="M0 0 C-2.39164168 1.32066755 -4.78780216 2.63161792 -7.1875 3.9375 C-7.86103516 4.31068359 -8.53457031 4.68386719 -9.22851562 5.06835938 C-12.76922967 6.98552649 -15.91553277 8.64904943 -20 9 C-20.66 8.67 -21.32 8.34 -22 8 C-20.75627811 7.01287122 -19.50472782 6.03560095 -18.25 5.0625 C-17.55390625 4.51722656 -16.8578125 3.97195312 -16.140625 3.41015625 C-13.00578543 1.34505208 -10.72521013 1 -7 1 C-6.34 0.649375 -5.68 0.29875 -5 -0.0625 C-3 -1 -3 -1 0 0 Z " fill="#D78C4D" transform="translate(67,26)"/>
<path d="M0 0 C0.99 0.33 1.98 0.66 3 1 C2.67 1.66 2.34 2.32 2 3 C1.34 3 0.68 3 0 3 C0 3.99 0 4.98 0 6 C-5.17578125 9.22265625 -5.17578125 9.22265625 -7 10 C-7.99 9.67 -8.98 9.34 -10 9 C-9.875 7.1875 -9.875 7.1875 -9 5 C-5.79116175 3.04679411 -3.7794561 2 0 2 C0 1.34 0 0.68 0 0 Z " fill="#D2D2D2" transform="translate(73,120)"/>
<path d="M0 0 C0.66 0 1.32 0 2 0 C2 2 2 2 -0.5 4.625 C-1.325 5.40875 -2.15 6.1925 -3 7 C-2.67 7.66 -2.34 8.32 -2 9 C-3.65 9.66 -5.3 10.32 -7 11 C-6.67 9.68 -6.34 8.36 -6 7 C-6.62648438 7.30035156 -7.25296875 7.60070312 -7.8984375 7.91015625 C-8.71570313 8.29042969 -9.53296875 8.67070313 -10.375 9.0625 C-11.18710938 9.44535156 -11.99921875 9.82820313 -12.8359375 10.22265625 C-13.55007812 10.47917969 -14.26421875 10.73570313 -15 11 C-15.66 10.67 -16.32 10.34 -17 10 C-15.42065361 9.01441551 -13.83634827 8.03677459 -12.25 7.0625 C-10.92742187 6.24458984 -10.92742187 6.24458984 -9.578125 5.41015625 C-7.29715674 4.16253573 -5.49814224 3.57226166 -3 3 C-1.9805881 2.01979625 -0.97753644 1.02196992 0 0 Z " fill="#E5E1D8" transform="translate(109,98)"/>
<path d="M0 0 C0.66 0.33 1.32 0.66 2 1 C1.360625 1.433125 0.72125 1.86625 0.0625 2.3125 C-2.26746003 3.91239177 -2.26746003 3.91239177 -3 7 C-4.9609375 7.8359375 -4.9609375 7.8359375 -7.375 8.375 C-8.16648437 8.56835938 -8.95796875 8.76171875 -9.7734375 8.9609375 C-12 9 -12 9 -13.7890625 7.5390625 C-14.18867187 7.03117187 -14.58828125 6.52328125 -15 6 C-12.54524486 4.96971956 -10.08685649 3.95054496 -7.625 2.9375 C-6.57699219 2.49567383 -6.57699219 2.49567383 -5.5078125 2.04492188 C-3.69495092 1.30408902 -1.84876857 0.64603036 0 0 Z " fill="#9A8973" transform="translate(63,119)"/>
<path d="M0 0 C0.556875 0.226875 1.11375 0.45375 1.6875 0.6875 C1.3575 2.3375 1.0275 3.9875 0.6875 5.6875 C-3.7675 6.1825 -3.7675 6.1825 -8.3125 6.6875 C-7.3125 2.6875 -7.3125 2.6875 -5 0.875 C-2.3125 -0.3125 -2.3125 -0.3125 0 0 Z " fill="#ABA498" transform="translate(77.3125,134.3125)"/>
<path d="M0 0 C1.32 0.33 2.64 0.66 4 1 C3.34 2.32 2.68 3.64 2 5 C1.34 5 0.68 5 0 5 C0 5.99 0 6.98 0 8 C1.32 7.67 2.64 7.34 4 7 C1.64722731 9.72426311 -0.62496331 10.8141763 -4 12 C-3.33501617 7.61110675 -1.81242323 4.0188515 0 0 Z " fill="#6F210C" transform="translate(60,133)"/>
<path d="M0 0 C3.09421227 3.64641016 4.81303755 7.71484283 6.6875 12.0625 C7.00783203 12.78244141 7.32816406 13.50238281 7.65820312 14.24414062 C8.99235942 17.30786415 10 19.62278005 10 23 C7.30144893 21.65072447 7.00897195 19.86617987 5.9296875 17.16796875 C4.49198569 13.81534477 2.72455885 10.63591104 0.98828125 7.4296875 C-0.09412927 4.76858339 -0.18729703 2.84489 0 0 Z " fill="#AD9D7D" transform="translate(128,108)"/>
<path d="M0 0 C0.66 0.33 1.32 0.66 2 1 C0.45338876 6.7646419 -2.123968 12.21219632 -7.3125 15.4375 C-7.869375 15.623125 -8.42625 15.80875 -9 16 C-7.30523158 12.47351217 -5.35497316 9.1232876 -3.375 5.75 C-2.74335938 4.67234375 -2.11171875 3.5946875 -1.4609375 2.484375 C-0.73777344 1.25460938 -0.73777344 1.25460938 0 0 Z " fill="#D18C7C" transform="translate(168,125)"/>
<path d="M0 0 C2.625 0.9375 2.625 0.9375 5 2 C1.4912812 5.09592835 -1.49197399 6.74194623 -6 8 C-5.4360709 4.72921124 -4.54319569 3.13628438 -2 1 C-1.34 0.67 -0.68 0.34 0 0 Z " fill="#E6DAC5" transform="translate(90,111)"/>
<path d="M0 0 C-0.1875 1.875 -0.1875 1.875 -1 4 C-3.5625 5.25 -3.5625 5.25 -6 6 C-6 6.66 -6 7.32 -6 8 C-7.32 8 -8.64 8 -10 8 C-9.00344362 4.31274141 -8.3417689 3.20648538 -5 1.1875 C-2 0 -2 0 0 0 Z " fill="#BBAD99" transform="translate(124,87)"/>
<path d="M0 0 C-0.33 0.99 -0.66 1.98 -1 3 C-15.85 2.505 -15.85 2.505 -31 2 C-31 1.67 -31 1.34 -31 1 C-26.95841399 0.83133892 -22.91671968 0.66542437 -18.875 0.5 C-17.73289062 0.45230469 -16.59078125 0.40460938 -15.4140625 0.35546875 C-14.30546875 0.31035156 -13.196875 0.26523438 -12.0546875 0.21875 C-10.53077393 0.1559082 -10.53077393 0.1559082 -8.97607422 0.09179688 C-5.98198857 -0.00055556 -2.99530376 -0.01562088 0 0 Z " fill="#EFD1A8" transform="translate(115,169)"/>
<path d="M0 0 C0 0.99 0 1.98 0 3 C-4.77357872 5.71391278 -8.34388537 7.56561146 -14 7 C-14 6.34 -14 5.68 -14 5 C-13.30132812 4.72285156 -12.60265625 4.44570312 -11.8828125 4.16015625 C-10.97273438 3.79792969 -10.06265625 3.43570313 -9.125 3.0625 C-8.22007813 2.70285156 -7.31515625 2.34320313 -6.3828125 1.97265625 C-1.5502008 0 -1.5502008 0 0 0 Z " fill="#9B0304" transform="translate(70,112)"/>
<path d="M0 0 C0.66 0.33 1.32 0.66 2 1 C0.91801129 4.48640807 -0.13369318 5.07292355 -3.4375 6.875 C-4.613125 7.24625 -5.78875 7.6175 -7 8 C-7.99 7.34 -8.98 6.68 -10 6 C-8.3811004 4.96951963 -6.75467511 3.95085322 -5.125 2.9375 C-4.22007813 2.36902344 -3.31515625 1.80054688 -2.3828125 1.21484375 C-1.20332031 0.61349609 -1.20332031 0.61349609 0 0 Z " fill="#AB9A7E" transform="translate(68,138)"/>
<path d="M0 0 C0.82041075 2.29715009 1.1049494 3.62684659 0.4375 6 C-3.4208789 11.36817934 -8.87261553 12.73226528 -15 14 C-15 13.34 -15 12.68 -15 12 C-11.535 11.505 -11.535 11.505 -8 11 C-8 10.34 -8 9.68 -8 9 C-6.68 8.67 -5.36 8.34 -4 8 C-4 7.34 -4 6.68 -4 6 C-3.34 6 -2.68 6 -2 6 C-1.34 4.02 -0.68 2.04 0 0 Z " fill="#CDC5B6" transform="translate(68,102)"/>
<path d="M0 0 C0 3 0 3 -2.23046875 5.41015625 C-3.20628906 6.28542969 -4.18210938 7.16070312 -5.1875 8.0625 C-6.15042969 8.94035156 -7.11335937 9.81820312 -8.10546875 10.72265625 C-10.74202913 12.79703506 -12.83534308 13.97597025 -16 15 C-16 14.34 -16 13.68 -16 13 C-13.74310104 11.09076955 -11.47856219 9.28244338 -9.125 7.5 C-7.83510299 6.51150467 -6.54600626 5.52196396 -5.2578125 4.53125 C-4.6817627 4.09361328 -4.10571289 3.65597656 -3.51220703 3.20507812 C-1.85922039 1.93409553 -1.85922039 1.93409553 0 0 Z " fill="#C4B89B" transform="translate(153,82)"/>
<path d="M0 0 C0.99 0.33 1.98 0.66 3 1 C1.04653795 2.67268922 -0.91229814 4.33821581 -2.875 6 C-3.70837891 6.71542969 -3.70837891 6.71542969 -4.55859375 7.4453125 C-8.7734375 11 -8.7734375 11 -11 11 C-9.52934075 7.41477124 -7.59934458 5.55613904 -4.5625 3.1875 C-3.78003906 2.56230469 -2.99757812 1.93710938 -2.19140625 1.29296875 C-1.10666016 0.65294922 -1.10666016 0.65294922 0 0 Z " fill="#ED260B" transform="translate(148,84)"/>
<path d="M0 0 C0 3 0 3 -2 6 C-2.99 6 -3.98 6 -5 6 C-5.1546875 6.86625 -5.1546875 6.86625 -5.3125 7.75 C-6.09792798 10.32049158 -7.30504197 11.93657284 -9 14 C-8.71334273 8.123526 -6.08745753 4.93566865 -2 1 C-1.34 0.67 -0.68 0.34 0 0 Z " fill="#DBD9D4" transform="translate(103,35)"/>
<path d="M0 0 C2.1875 0.625 2.1875 0.625 4.1875 3.625 C3.48625 3.33625 2.785 3.0475 2.0625 2.75 C-0.77987996 2.31934336 -0.77987996 2.31934336 -2.48046875 3.89453125 C-3.98956479 5.42513459 -5.42684662 6.98221507 -6.8125 8.625 C-7.8025 8.295 -8.7925 7.965 -9.8125 7.625 C-3.81285286 0.84730064 -3.81285286 0.84730064 0 0 Z " fill="#E1E0DC" transform="translate(43.8125,154.375)"/>
<path d="M0 0 C1.67588141 2.51382212 2.94030311 4.82947288 4.1875 7.5625 C4.55230469 8.34753906 4.91710937 9.13257813 5.29296875 9.94140625 C5.52628906 10.62074219 5.75960937 11.30007812 6 12 C5 14 5 14 3 15 C0.74315457 9.63999211 -0.36263859 5.8022175 0 0 Z " fill="#ED3415" transform="translate(117,50)"/>
<path d="M0 0 C1.81618856 1.11903546 3.62785526 2.24541284 5.4375 3.375 C6.44683594 4.00148437 7.45617188 4.62796875 8.49609375 5.2734375 C11 7 11 7 12 9 C7.06128619 7.83794969 3.6922906 6.6922906 0 3 C0 2.01 0 1.02 0 0 Z " fill="#B87469" transform="translate(43,149)"/>
<path d="M0 0 C4.95 0 9.9 0 15 0 C15 0.66 15 1.32 15 2 C12.36 2 9.72 2 7 2 C6.67 2.99 6.34 3.98 6 5 C5.34 4.01 4.68 3.02 4 2 C2.68 1.34 1.36 0.68 0 0 Z M5 5 C5 5.99 5 6.98 5 8 C4.34 7.67 3.68 7.34 3 7 C3.66 6.34 4.32 5.68 5 5 Z " fill="#CBB797" transform="translate(138,131)"/>
<path d="M0 0 C0.33 0.99 0.66 1.98 1 3 C-0.40445835 5.2636564 -2.1967913 7.0208685 -4 9 C-5.32 8.67 -6.64 8.34 -8 8 C-5.36 5.36 -2.72 2.72 0 0 Z " fill="#F9DC77" transform="translate(158,143)"/>
<path d="M0 0 C0.99 0.33 1.98 0.66 3 1 C2.34 3.31 1.68 5.62 1 8 C0.01 8 -0.98 8 -2 8 C-2.66 8.99 -3.32 9.98 -4 11 C-4.33 10.34 -4.66 9.68 -5 9 C-4.00390625 6.8359375 -4.00390625 6.8359375 -2.5625 4.375 C-2.08941406 3.55773437 -1.61632812 2.74046875 -1.12890625 1.8984375 C-0.75636719 1.27195312 -0.38382813 0.64546875 0 0 Z " fill="#DBDBDB" transform="translate(30,114)"/>
<path d="M0 0 C2 1 2 1 3 3 C1.73581754 3.69965443 0.46334598 4.38434763 -0.8125 5.0625 C-1.52019531 5.44535156 -2.22789063 5.82820313 -2.95703125 6.22265625 C-5 7 -5 7 -8 6 C-8 5.34 -8 4.68 -8 4 C-6.865625 3.525625 -5.73125 3.05125 -4.5625 2.5625 C-1.24259834 1.36377917 -1.24259834 1.36377917 0 0 Z " fill="#B7230D" transform="translate(65,110)"/>
<path d="M0 0 C-3.64859761 3.04049801 -7.7444533 4.96518762 -12 7 C-11.2734375 3.21875 -11.2734375 3.21875 -8.8125 1.25 C-5.64389285 -0.15826984 -3.42985545 -0.23929224 0 0 Z " fill="#BA1506" transform="translate(124,86)"/>
<path d="M0 0 C2 3 2 3 1.5390625 5.69921875 C1.23742187 6.68535156 0.93578125 7.67148437 0.625 8.6875 C0.32851562 9.68136719 0.03203125 10.67523438 -0.2734375 11.69921875 C-0.51320313 12.45847656 -0.75296875 13.21773437 -1 14 C-1.99 13.01 -2.98 12.02 -4 11 C-3.71125 10.29875 -3.4225 9.5975 -3.125 8.875 C-1.97866412 5.94547497 -0.97374346 2.99078347 0 0 Z " fill="#AF2A13" transform="translate(105,31)"/>
<path d="M0 0 C-2.11386464 2.11386464 -3.79267603 2.97008322 -6.5 4.1875 C-7.2940625 4.55230469 -8.088125 4.91710937 -8.90625 5.29296875 C-9.5971875 5.52628906 -10.288125 5.75960938 -11 6 C-11.66 5.67 -12.32 5.34 -13 5 C-13 4.34 -13 3.68 -13 3 C-8.44573816 0.33409063 -5.26053037 -0.31563182 0 0 Z " fill="#F7DA82" transform="translate(69,23)"/>
<path d="M0 0 C0.58201172 0.98226562 0.58201172 0.98226562 1.17578125 1.984375 C2.83325291 4.23981033 2.83325291 4.23981033 5.48046875 4.390625 C6.37378906 4.34421875 7.26710938 4.2978125 8.1875 4.25 C9.08855469 4.21390625 9.98960938 4.1778125 10.91796875 4.140625 C11.60503906 4.09421875 12.29210938 4.0478125 13 4 C8.73164405 6.26785219 4.83970587 7 0 7 C0 4.69 0 2.38 0 0 Z " fill="#9E0405" transform="translate(34,116)"/>
<path d="M0 0 C-5.445 2.475 -5.445 2.475 -11 5 C-10.67 3.35 -10.34 1.7 -10 0 C-4.5 -2.25 -4.5 -2.25 0 0 Z " fill="#ACA498" transform="translate(107,101)"/>
<path d="M0 0 C0.95465783 2.16967689 1.14401212 3.56328793 0.3984375 5.82421875 C-0.35870385 7.5684743 -1.17609198 9.28627131 -2 11 C-2.99 11 -3.98 11 -5 11 C-4.125 6.25 -4.125 6.25 -3 4 C-2.34 4 -1.68 4 -1 4 C-0.67 2.68 -0.34 1.36 0 0 Z " fill="#A99F8D" transform="translate(89,64)"/>
<path d="M0 0 C-1.47559669 4.42679007 -3.90057368 4.91432696 -8 7 C-8.66 7 -9.32 7 -10 7 C-8.89184175 3.78634109 -8.01470446 3.0085776 -5 1.25 C-2 0 -2 0 0 0 Z " fill="#919191" transform="translate(70,118)"/>
<path d="M0 0 C2.33405265 2.33405265 3.31194287 4.50451742 4.6875 7.5 C5.37392578 8.96953125 5.37392578 8.96953125 6.07421875 10.46875 C6.37972656 11.3040625 6.68523438 12.139375 7 13 C6.67 13.66 6.34 14.32 6 15 C5.20602761 13.75146327 4.41492783 12.50109957 3.625 11.25 C2.96371094 10.20585937 2.96371094 10.20585937 2.2890625 9.140625 C-0.17647059 5.04634581 -0.17647059 5.04634581 -1 3 C-0.67 2.01 -0.34 1.02 0 0 Z " fill="#E7D095" transform="translate(21,118)"/>
<path d="M0 0 C0.99 0 1.98 0 3 0 C2.49701212 4.40114397 0.91227269 6.71195019 -2 10 C-2.17942163 6.05272412 -2.09350689 3.4019487 0 0 Z " fill="#B9B19F" transform="translate(98,41)"/>
<path d="M0 0 C0.66 0.33 1.32 0.66 2 1 C-1.82180842 5.4008703 -4.47371099 6.80805531 -10 8 C-7.92141021 5.81907964 -5.78143382 4.03609531 -3.3125 2.3125 C-2.68988281 1.87550781 -2.06726563 1.43851563 -1.42578125 0.98828125 C-0.95527344 0.66214844 -0.48476562 0.33601562 0 0 Z " fill="#C7746C" transform="translate(146,152)"/>
<path d="M0 0 C0.33 0 0.66 0 1 0 C1 1.65 1 3.3 1 5 C0.34 5 -0.32 5 -1 5 C-1 5.99 -1 6.98 -1 8 C-1.66 8 -2.32 8 -3 8 C-3 9.32 -3 10.64 -3 12 C-3.66 12 -4.32 12 -5 12 C-4.54738642 10.56068883 -4.08767021 9.12361001 -3.625 7.6875 C-3.24214844 6.48673828 -3.24214844 6.48673828 -2.8515625 5.26171875 C-2 3 -2 3 0 0 Z " fill="#B1B1B1" transform="translate(82,76)"/>
<path d="M0 0 C0.66 0 1.32 0 2 0 C1.48474397 5.28137429 -0.25477117 8.57221156 -3 13 C-3.33 13 -3.66 13 -4 13 C-4 11.35 -4 9.7 -4 8 C-3.01 8 -2.02 8 -1 8 C-0.67 5.36 -0.34 2.72 0 0 Z " fill="#AE9F84" transform="translate(94,51)"/>
<path d="M0 0 C0 3.60573896 -0.81707462 4.41336566 -3 7.1875 C-3.556875 7.90292969 -4.11375 8.61835937 -4.6875 9.35546875 C-5.120625 9.89816406 -5.55375 10.44085938 -6 11 C-7.231394 8.53721199 -7.07159196 6.7204945 -7 4 C-5.824375 3.566875 -5.824375 3.566875 -4.625 3.125 C-1.90328368 2.15087746 -1.90328368 2.15087746 0 0 Z " fill="#C97764" transform="translate(36,46)"/>
<path d="M0 0 C0.33 1.32 0.66 2.64 1 4 C0.34 4 -0.32 4 -1 4 C-1.33 6.64 -1.66 9.28 -2 12 C-2.99 12 -3.98 12 -5 12 C-4.01 8.7 -3.02 5.4 -2 2 C-1.34 2 -0.68 2 0 2 C0 1.34 0 0.68 0 0 Z " fill="#C3C4C4" transform="translate(95,47)"/>
<path d="M0 0 C1.34313399 0.64669414 2.67391178 1.31903578 4 2 C4.886875 2.45375 5.77375 2.9075 6.6875 3.375 C9.34936281 5.24549819 9.42730826 5.94144851 10 9 C8.70094902 8.2628641 7.41098878 7.50969444 6.125 6.75 C5.40570313 6.33234375 4.68640625 5.9146875 3.9453125 5.484375 C1.79125838 3.84071924 1.00859415 2.48432665 0 0 Z " fill="#EEC781" transform="translate(147,35)"/>
<path d="M0 0 C0.59375 1.8359375 0.59375 1.8359375 1 4 C0.03567924 5.68756133 -0.96210419 7.35666496 -2 9 C-1.67 9.66 -1.34 10.32 -1 11 C-2.98 11.99 -2.98 11.99 -5 13 C-5 9.51038791 -4.09620626 7.88519705 -2.5 4.8125 C-2.0359375 3.91144531 -1.571875 3.01039063 -1.09375 2.08203125 C-0.7328125 1.39496094 -0.371875 0.70789063 0 0 Z " fill="#B5B3B3" transform="translate(54,141)"/>
<path d="M0 0 C0 0.66 0 1.32 0 2 C-1.61992165 2.86375896 -3.24611861 3.71575854 -4.875 4.5625 C-6.23238281 5.27599609 -6.23238281 5.27599609 -7.6171875 6.00390625 C-8.40351562 6.33261719 -9.18984375 6.66132812 -10 7 C-10.66 6.67 -11.32 6.34 -12 6 C-10.37829621 4.99466333 -8.75252763 3.99588093 -7.125 3 C-5.76761719 2.1646875 -5.76761719 2.1646875 -4.3828125 1.3125 C-2 0 -2 0 0 0 Z " fill="#C5C5C5" transform="translate(104,102)"/>
<path d="M0 0 C0.66 0 1.32 0 2 0 C5.03340145 4.04453527 5.93178561 8.15195009 7 13 C2.9344873 9.32167898 0.77590432 5.43133021 0 0 Z " fill="#CF8879" transform="translate(161,49)"/>
<path d="M0 0 C3.43261988 1.20605563 5.54828891 2.33509664 8 5 C9.31963709 6.01800576 10.65009646 7.02248365 12 8 C8.04173281 7.43453326 5.240291 6.36453668 2 4 C0.6875 1.8125 0.6875 1.8125 0 0 Z " fill="#ECC34F" transform="translate(51,157)"/>
<path d="M0 0 C0.33 0.99 0.66 1.98 1 3 C0.01 3.495 0.01 3.495 -1 4 C-0.67 2.68 -0.34 1.36 0 0 Z M-13 5 C-9.37 5 -5.74 5 -2 5 C-3.485 6.485 -3.485 6.485 -5 8 C-7.84875378 7.79846293 -10.25099253 6.85624823 -13 6 C-13 5.67 -13 5.34 -13 5 Z " fill="#DCDCDC" transform="translate(145,134)"/>
<path d="M0 0 C0.66 0.33 1.32 0.66 2 1 C-1.90102388 3.78644563 -5.38486888 5.68139111 -10 7 C-10 6.34 -10 5.68 -10 5 C-8.38007835 4.13624104 -6.75388139 3.28424146 -5.125 2.4375 C-4.22007813 1.96183594 -3.31515625 1.48617187 -2.3828125 0.99609375 C-1.20332031 0.50302734 -1.20332031 0.50302734 0 0 Z " fill="#B4B4B4" transform="translate(90,109)"/>
<path d="M0 0 C0.66 0.33 1.32 0.66 2 1 C2.25 3.75 2.25 3.75 2 7 C0 9.375 0 9.375 -2 11 C-2 7.07103605 -0.99700137 3.80106772 0 0 Z " fill="#A83314" transform="translate(156,64)"/>
<path d="M0 0 C0.58265625 0.21527344 1.1653125 0.43054688 1.765625 0.65234375 C0.0078125 1.59635417 -1.75 2.54036458 -3.5078125 3.484375 C-5.53939865 4.69997868 -5.53939865 4.69997868 -7.234375 7.65234375 C-7.894375 6.66234375 -8.554375 5.67234375 -9.234375 4.65234375 C-8.16330383 3.78285058 -7.07691556 2.9322017 -5.984375 2.08984375 C-5.38109375 1.61417969 -4.7778125 1.13851562 -4.15625 0.6484375 C-2.234375 -0.34765625 -2.234375 -0.34765625 0 0 Z " fill="#C6C5C5" transform="translate(59.234375,148.34765625)"/>
<path d="M0 0 C1.8125 0.1875 1.8125 0.1875 4 1 C5.75 3.5625 5.75 3.5625 7 6 C5.68 6 4.36 6 3 6 C3 5.34 3 4.68 3 4 C1.68 3.67 0.36 3.34 -1 3 C-0.67 2.01 -0.34 1.02 0 0 Z " fill="#C1C1C1" transform="translate(31,130)"/>
<path d="M0 0 C0.928125 0.0825 1.85625 0.165 2.8125 0.25 C0.87995228 2.2745738 -0.81908688 3.67105792 -3.1875 5.25 C-4.1775 4.92 -5.1675 4.59 -6.1875 4.25 C-4.36434338 1.00883268 -3.82500054 0.30000004 0 0 Z " fill="#999185" transform="translate(113.1875,112.75)"/>
<path d="M0 0 C0.66 0.33 1.32 0.66 2 1 C0.02 3.31 -1.96 5.62 -4 8 C-5.32 7.67 -6.64 7.34 -8 7 C-5.36 4.69 -2.72 2.38 0 0 Z " fill="#BB3410" transform="translate(148,78)"/>
<path d="M0 0 C0.66 1.32 1.32 2.64 2 4 C-2.43076923 6.09230769 -2.43076923 6.09230769 -5.3125 5.625 C-5.869375 5.41875 -6.42625 5.2125 -7 5 C-6.195625 4.71125 -5.39125 4.4225 -4.5625 4.125 C-1.8673532 3.26737432 -1.8673532 3.26737432 -1 1 C-0.67 0.67 -0.34 0.34 0 0 Z " fill="#D2280F" transform="translate(129,79)"/>
<path d="M0 0 C0.99 0 1.98 0 3 0 C1.73058503 3.91402949 0.48832306 5.79072873 -3 8 C-2.45276317 4.62537285 -1.9451 2.91765 0 0 Z " fill="#D4CFC1" transform="translate(152,70)"/>
<path d="M0 0 C1.00000429 4.00001715 0.80688405 6.05523353 0 10 C-1.32 10.33 -2.64 10.66 -4 11 C-2.68 7.37 -1.36 3.74 0 0 Z " fill="#F4D78E" transform="translate(173,115)"/>
<path d="M0 0 C0.66 0 1.32 0 2 0 C4.09350689 3.4019487 4.17942163 6.05272412 4 10 C1.16625119 6.79663178 0.4794463 4.21912747 0 0 Z " fill="#EF1E0B" transform="translate(136,97)"/>
<path d="M0 0 C0 0.99 0 1.98 0 3 C-2.64 3.99 -5.28 4.98 -8 6 C-7.375 4.125 -7.375 4.125 -6 2 C-2.875 0.75 -2.875 0.75 0 0 Z " fill="#C10C04" transform="translate(158,73)"/>
<path d="M0 0 C9.41002278 -0.3690205 9.41002278 -0.3690205 14 2 C13.01 2.66 12.02 3.32 11 4 C11 3.34 11 2.68 11 2 C10.484375 2.20625 9.96875 2.4125 9.4375 2.625 C5.96734329 3.15887026 3.29364209 2.07676761 0 1 C0 0.67 0 0.34 0 0 Z " fill="#D85818" transform="translate(148,62)"/>
<path d="M0 0 C0.33 0 0.66 0 1 0 C1.33 2.64 1.66 5.28 2 8 C0.02 8.99 0.02 8.99 -2 10 C-1.85950482 8.52031676 -1.71245174 7.04125484 -1.5625 5.5625 C-1.48128906 4.73878906 -1.40007812 3.91507813 -1.31640625 3.06640625 C-1 1 -1 1 0 0 Z " fill="#CC0403" transform="translate(107,30)"/>
<path d="M0 0 C3.05936637 3.75467691 5 7.08113061 5 12 C1.70343678 10.35171839 1.24171391 7.33005093 0 4 C0 2.68 0 1.36 0 0 Z " fill="#AA9671" transform="translate(133,119)"/>
<path d="M0 0 C0.66 0.33 1.32 0.66 2 1 C1.01 1.33 0.02 1.66 -1 2 C-2.20882096 4.00016466 -2.20882096 4.00016466 -3 6 C-5.475 5.01 -5.475 5.01 -8 4 C-5.31143836 2.20762558 -3.0466145 1.01553817 0 0 Z " fill="#9E8259" transform="translate(56,122)"/>
<path d="M0 0 C0.99 0.33 1.98 0.66 3 1 C3 1.99 3 2.98 3 4 C0 6 0 6 -2.1875 5.625 C-2.785625 5.41875 -3.38375 5.2125 -4 5 C-3.525625 4.54625 -3.05125 4.0925 -2.5625 3.625 C-0.90972192 2.06741796 -0.90972192 2.06741796 0 0 Z " fill="#9D9282" transform="translate(125,104)"/>
<path d="M0 0 C0.66 0.33 1.32 0.66 2 1 C-0.25 3.5625 -0.25 3.5625 -3 6 C-4.32 5.67 -5.64 5.34 -7 5 C-4.69 3.35 -2.38 1.7 0 0 Z " fill="#BC300F" transform="translate(138,86)"/>
<path d="M0 0 C-5.17578125 3.22265625 -5.17578125 3.22265625 -7 4 C-7.99 3.67 -8.98 3.34 -10 3 C-4.375 -1.3125 -4.375 -1.3125 0 0 Z " fill="#DDCEB4" transform="translate(73,126)"/>
<path d="M0 0 C0.66 0.33 1.32 0.66 2 1 C-1.465 3.97 -1.465 3.97 -5 7 C-5.33 6.34 -5.66 5.68 -6 5 C-2.25 1.125 -2.25 1.125 0 0 Z " fill="#C7C7C7" transform="translate(104,121)"/>
<path d="M0 0 C0.66 0.33 1.32 0.66 2 1 C-0.52788007 3.79872437 -2.20411134 5.45773019 -6 6 C-4.98545548 3.4636387 -4.3146444 2.20648539 -2 0.6875 C-1.34 0.460625 -0.68 0.23375 0 0 Z " fill="#CFCFCF" transform="translate(120,113)"/>
<path d="M0 0 C0 3.41099168 -0.49145406 6.63088314 -1 10 C-1.99 10 -2.98 10 -4 10 C-3.38461538 3.47692308 -3.38461538 3.47692308 -1.4375 1.0625 C-0.7259375 0.5365625 -0.7259375 0.5365625 0 0 Z " fill="#AA9B74" transform="translate(58,137)"/>
<path d="M0 0 C0.66 0.33 1.32 0.66 2 1 C0.7260411 3.03833424 -0.61061923 5.03852126 -2 7 C-2.66 7 -3.32 7 -4 7 C-3.43628586 3.73045798 -2.50037734 2.17424117 0 0 Z " fill="#DEDCD6" transform="translate(88,112)"/>
<path d="M0 0 C-0.66 1.65 -1.32 3.3 -2 5 C-3.65 4.67 -5.3 4.34 -7 4 C-2.25 0 -2.25 0 0 0 Z " fill="#AC9676" transform="translate(97,102)"/>
<path d="M0 0 C-0.3125 1.9375 -0.3125 1.9375 -1 4 C-1.99 4.33 -2.98 4.66 -4 5 C-4.99 4.34 -5.98 3.68 -7 3 C-2.25 0 -2.25 0 0 0 Z " fill="#B59B78" transform="translate(108,96)"/>
<path d="M0 0 C-0.25 1.875 -0.25 1.875 -1 4 C-3.0625 5.25 -3.0625 5.25 -5 6 C-4.625 3.5625 -4.625 3.5625 -4 1 C-2 0 -2 0 0 0 Z " fill="#CBC4B8" transform="translate(124,87)"/>
<path d="M0 0 C1.32 0.33 2.64 0.66 4 1 C4 2.65 4 4.3 4 6 C3.01 6 2.02 6 1 6 C0.67 4.02 0.34 2.04 0 0 Z " fill="#EF270E" transform="translate(160,65)"/>
<path d="M0 0 C1.32 0.33 2.64 0.66 4 1 C2.35 2.32 0.7 3.64 -1 5 C-1.66 4.67 -2.32 4.34 -3 4 C-2.01 2.68 -1.02 1.36 0 0 Z " fill="#F7CF57" transform="translate(148,152)"/>
<path d="M0 0 C-1 2 -2 4 -3 6 C-4.32 5.34 -5.64 4.68 -7 4 C-2.25 0 -2.25 0 0 0 Z " fill="#C4C4C4" transform="translate(80,116)"/>
<path d="M0 0 C2 1 2 1 3 3 C-1.43076923 5.09230769 -1.43076923 5.09230769 -4.3125 4.625 C-4.869375 4.41875 -5.42625 4.2125 -6 4 C-4.02 2.68 -2.04 1.36 0 0 Z " fill="#B6280C" transform="translate(129,92)"/>
</svg>
